<mxfile host="Electron" agent="Mozilla/5.0 (X11; Linux x86_64) AppleWebKit/537.36 (KHTML, like Gecko) draw.io/27.0.5 Chrome/134.0.6998.205 Electron/35.3.0 Safari/537.36" version="27.0.5">
  <diagram name="Page-1" id="du7yfEUXGuAtOxJkZX3z">
    <mxGraphModel dx="1106" dy="663" grid="1" gridSize="10" guides="1" tooltips="1" connect="1" arrows="1" fold="1" page="1" pageScale="1" pageWidth="850" pageHeight="1100" math="0" shadow="0">
      <root>
        <mxCell id="0" />
        <mxCell id="1" parent="0" />
        <mxCell id="J0pLY2TXnMOKrBfPYbP_-1" value="" style="shape=stencil(lZzbkh23DUW/Zl67eL88O85/uMpyNBVFcslyLn8fMhOeOdzoXi29jY6AbpINAhsbIF/iT398/OX3Dy/B/fHt65e/f/jX66/fPr7Ev7yE8Pr544evr9/GXy/x55f4029fvn7429cvf37+9e3fv/8yJedf//jyz/mEf7/phSP5qRTcf95+iIeP//vhr2/in14/b+KhbOL5KCju+ibejuKuxf3R3SbuxwMayde0y+cjonzZJ+vvxpP24Y9fYiD5uK/OWM0Ky+OPEHb5fPRC8v9fjYd8O7y/lnfraY+P69YIL+TbPt8YjtxRXp6fjgbrP+TzLl+PkFC+7vL9yCy/jz/5NcKr9dnXP6UjwPca8vv6p3LzfZ08f4yf5ffn57E9Yb7+8LIb87LYK3vb90tuR8Tnx/17lccbr/bLPv6SDo/7q+zrU+pasQv5tvuH6tBbDX+y208d3g3mGw6/z7fm9cYL+SjjGeuJ7lCcbRsWC/MNup4tov8Zu3UfTyuHw/GofEN7HuOJm3z36G/Dsq6HfFwe4Cq67Ovf8/IAV99r/769Hgm/l3zf3m7GL/5/yFeUb03lG/jnuLzZszyMP63ZPckXWJ+8vMeTfILvO7xZUXkP36uZ9axHg/3Vj1JUPsH4/TCvfcP0cnRycPFwRRXQI+bDyZKOEAxT9sNDeVWgNfX9cEkVKGhPry5DSkenXWknnXibZTOHxPusaODrHOjHl3bxRxTiCE3dKMCkYzyKGVIF3xiLMdZ0ZFJ47K0nhQDLOsCGLms8OmyHFI/QVKFAfE15wYcnhURDqoqQh0IE48sjoAajAC5pIJRsFWBIeXwms0oJJp2HV6pmlWhI7WTS5IaLO7KxJQdeo9hJJww8AwclY0sUaUtZgenZCcAqlWZcJbuZAZ2cCbYenEAd2ZZxlYTeB9gKVRUivSGZLz0MnhTKglvPgAGMr1YToQsi2toN5CkLlJ2HRJPj9EdUPVcIZg4Vk96BAfU7VNxxLWkaOBQyDakYHDb8CL2haqIwgQCY98CZySrQkPryEc8KsErdKda+wyZ+pX7PkwbjGwpqSxXJkG7hc0XvPRS6mUOAVZqetKuCo0mPiGYAFiGB6YXMBiIIOjZktRsIfGu3e7pgktptfBj2C854ronYUuY3VAPhmCd4R6kPhbBCzKWCBBS3cuMrBaFexpa6eUMVKq6wLVmFiM743XKeslv80gZKD/ccWUGsdUQMyk/m/tptaUQ9QmTvO/iJkegQRadT2Z3xCPXkKqfCvqzlwUpeKggp1BAvvfu5J1boZj/Il84B4U83qDJ15Bmmwm7eqdy9oQiTxyBxKuz7Ibm77yBviBWhw5zD/h1iOgrbUt9XaSY59AaTTofHIK8UhF8JDENn+i8Esmc30xQZz3SW5yBJky+Y0kxGZf9wPrG1Nt0P3vOX7sbdY0Yz5AX9VHYyA5rsxj1AK23orkncTTDpy+0+7Ii95INzepJnB9OjynPokc0c2eiy1oxu4khUbBgRSw4cJuuTVg57BSXF4hKu5wC3XZ9P+37EVa/y5FgGPPdSVVgY61zeVMky5gszhakiT6R5NeAlI2k+YnAy8pSDhfX6J3nKzrvac0IOcERsYVUTkqolK4vPvNBI/rvuX8qbJ7ug9k95xQjvYg8Rs+acTZVvcZrn8lEhS1gJ5bm8V6YtIOE5a1wSxhYPcC5fNMsJGABSMlXQVUa9ouW8ypN/i02pyEfZ5lw+a5wPmNXFqAxBQBJ8oIZmxkPMqNOqI6/PZPF3eY8YORStWnvMPCYmkYCN8W5WUQRCIFYMhjr2XETsCuQ8QhrfNOvwXNQsBgJxE0PWeHEzfsP/OK5YBKUSHab43mvThrsp6kgmyo8fADHr6CkaLd/3fYtfdOwefWdSV+i5hqBjDxjpgpa3mQTwikvYjzuFJRHdlFMrZlTltLUgohE4rVkx4+4UknOfjPFoEbMWpzW9uOrc3yvOTTJmMNwz4hTNEvo6WUhyTk5Txrg4le81AnI1ziJ3B7vJaQki4vZwmr1GxAlOOWZOO06eTq03bmGCJxNDIwiK0Yjkd8otR+z7cBYB3mw+HTs/3anj4LE7HTuvjFMj4JYts/nYi5mns804NQKq9jhFlnf27vXpvJt+ULwrTOdexaIo0WOriiQlTKI8Kq5PcZVyAA1lj868q6it4rRXTbXJoRG0la6/ixOE6ArPHXKbZ3CJwvYZHMPnR62XO0yXLZwc8tQBY+Cqw6ruhMMKP2n1Ldx+BKErOB/1+TR+23TlkGWd2b2uJ/aMmWKoW+z3ZTolTclobtH4KO6ps+mgxx7dGLUc4LFKOdPZqPLgpmy6zOngTMcV0VOVyKb7vD7JlNI8wrlJV6gnpPQ6mzYIz90oj2D8Lk/50aRzlK4geimb/RjQedpml4Dp/qS7FASS6590mkFSN3Sd4jpsdOm6nlwDtHRjQn9VDV2RkD63dGnC8oKlY9PCkld0rza1Y77RkqWfKeFopi8uIr3abFkLe2In3W6AOJUjvNK3EemrWS7Y7SEs4HQun7UJPnD9teh+D3dF6q7joXg6yzWGVCB50wkTuI7fNT4GjF/enaXPVK/pClQTd7WY+ktG/nnIC/asXJ/qpksaD1HMep8EPM+V4L4A2EOBt/CsQIoCnxsZNqExuOMmnka0K9wwWbNOK+kCVz1mJVi2QcWySje4YCAX7LJp6qhjYsNoJrur3LzU9DvMJgFeViFvZhsCz0Fy69noQKbRNHuYrRQ8aYGXs1mDK/KCDwbCoMxwKphTQth7YRRmSwsrSMgpCbv/pk+VppnGfW2mpaUyCT87IuWoEMOEbojpWrExtFddpeaQGRkKEshnAxavkjctXpQ6zSHJG9pdx5ZMujsO5tX0PXOxy36Hnthaq+ndzuzIqmk9velQKVp/nuvG3X+6SnX5witIoh2MfI5pKOjxiopJyOxXtO2zZHxRUfm7LzxXMGnCdAu0rOZw281hrAEMtRv2xlq9aWNuDPVszzCfrzrpSm6LrTlXaCcnsijGzc5qo4BDKqaNuSE/MLvD7SExGlI052IabtFmjkl2bqp8PxX5neZdLeSrnLTVky59ynrmSQOnCoW6bh5toE8KtKzztIQ5ukZEWTWMb2esUQ3TNBWomGogXM/MFVjPl1cgPldIZj9kjHHFHsnkQyi2+2a2sEN8mKeHgioUOtBkT00mBIk5mQMcTBmcnLHioHhyiithUpmqsVZmVeZJNKNAMS5Fs4ESVmXnaTpzhJD6pqJJaTo3xsWiNe55DgCML8aTN2SqmhgueyiQ9z45N5kxjzs5mZkxAp2c/bxRiJrSzDlwP463b+AKgX0DXoNRzdG1wjWIfOL5KHn10cyBz1h5c/VHv2knNz6goe2ZpsAJHOD5RTtbJglBLsP41Y7hKpmzTB2tIho33JGmC0poPPFSFwq61To2uJgu2skD4d0W6iEZrvqzrAHv5tDx3Owac8SIedigZZTOJVxzV0Jr7ImMfMGEwdDy824LHr8ceHJoQF7zkdqQlrR3i2RsTDN3l0wAh8+XtLPe1Fk1Ny+V6766noUxgleWt/i7u3iky7shD+7U/jPHSqfnBHNAPsVpFvJeyLuSlzJQwf3lzKmChP7Bma5zf3MXkpShY79ZH+FfI7MQ9vl8DMGMP3Id0eldWpHr7ub7horHHMzdTyNEEWNhLl+YdUfcv94w5rSehkzwDXkmr20eA4RQkcCUvfzj9qKreLT7HyZDzGHljOg72D4rDr6m5Zz6fYLit4BZogldgRGrJj8Bz+sEzQK4Hhi0hZKvSDMX5t09XVBMwNzTXLAUbmK0pOfh5nqrpINhyGauEqT+th++efBGfPzxfsnhb6+fPr3dkfj8/3op4vjp7ULF+PN/AQ==);lineShape=1;strokeColor=default;" parent="1" vertex="1">
          <mxGeometry x="69.25254021537626" y="24.82429041520436" width="712.8295893363536" height="299.2429622443051" as="geometry" />
        </mxCell>
        <mxCell id="J0pLY2TXnMOKrBfPYbP_-2" value="" style="shape=stencil(lVrJch03DPwaXVncl7Pj/IerLEeqKJJLlrP8fYC8cDRszPR7uskyWwNibQC8S59+PHz5fn8X/Y+315ff7/96/Pr2cJd+uYvx8fnh/vXxTX66S5/v0qdvL6/3v72+/Hz+evn39y96Un/64+VP/Qt/X3DexaCg6P+5/CJk1+N/v/n1cv7p8Xk53zOeD/X8fHAlruejG+H8fJx/bTsfXCDyRNdX+bur+fx4cnksx6vLRHq5W1qOZxcbO97X49ElIntxtax3db6cH6+urlf1zvvz483VDsfDOD/eUZHReXJ8uFFBM5UcVyt6sBOTRrwkgh+IPMSwIbm0WjYUl4k2xW/zKlHoU2PHgOLS6vpir//tfQyoLq72FSUldoeGzi8uMpiWRIkgUnOd3WG4sDqFGLKTAHh3mglIcmkikugkrH6UsitESwIYq0ipucwiXkJ+VWv2HJBcaysg0ajXOF5dI9eZxo4BxUTDcIXYQcwU1rRY4kwGx4Du4ipSKa4xtQ4MoNJnqj/OjN4l+MKYij4GBJdWw1XvCsu9ckWPABZAKaGlBTCI4VLBAKqSUtmlq7lDoGkmmawqIjFfSt2NjGqtxJfEmSFExXAsE+eAai2VGi5HjDgBsDqV87ziDkBFqrMy7QCFARraQe9AilvurhUDIF8o3kRcdYM4XxHmYi49iGuUhM6naiWuUQxdEEAg3lrqkR0YQDzHfKEQ1xDfxC80GnEawaBWKTGMxAjBW5Nx3SjlMUByNURcnFXvGJCnI2yA5CJxjbp5/wbIbrA7NNfWGle3Un8MGMgja3eFEMm2VbQJaIFSB/nvul66CVUlFahJElhDtLX5m2NAdn4VqfuZeI4BBRNZl2+SNNPEDsDlC00zInEGQOUidZfXZNwbrUBN4mE1XO80CYhOgIb2MYU8BgRklQKoDCA9RUNAI5fuCX1JAeTSXdK9/QJxbzEThKgAAnFvMRMCuktMpIZ5Sf5EJL7UraW3qncMGCbiBm2Eh+FL4r+NAYRZrHeQkGqsxZKYBkCiVHpEbAckyisHlNUOkkcGMdxIWNgFwLosAUCICsAzkSTNrM4nuZDlVgEUYJU8gIbJSwJgzFgA0HhfA9TZx98OwIIi7TizQzNzDJ5mRkeRRK3UW/tkqTtf8iSAhmktBcBCVADVOJ9nlx7YxwmA1bix9bY7kViaEcBY033bJkCnALhDnZY5bsC9NxHECZN+AioKHzsoYDV151MrVRNk40qHM2oIEKlx79sq1A7QuOWqATAOJwCYM/ZCiasAMmgpXQUEtEPmasXU16cDnwLA+yplugoA70u081MtQRbgXFrtABUlzEHEqaUNgPU06nwJAayRU/cOeGnWgSsA0kaZhfXmGO0ussGdRQgRZC3EMPNTcb/CFQt8XRyczRHGwM5MQohOdDdWuA9SrtgPA4Ihx2y4L0WoGAAb72uZC+YLzP2aSQN9evCNpbrz8YwlA6ol5hqGblxTq220rnzBUCYBsEmFJWX9Ctc1tE/TMUv4hlj2wllcNK5RON2Is8zuyiIbPCj97gigbDpMR9j3ryympYUoqFaW+7oZz8ifYAMgbYPWO4xE13XdEEvx38wa3moAnY6+tVkEwKDje9uO7tLtjR3vO0+7sad+J1E3du2D71F0LtARwIpQM+zhnWCfzjYSGoLR6dZwVCGmZgEhbCTCHQqdG+sEaPVv9T6iVqnkQKfFvzvxb6EvwPCvZONmemp1LwbwuCbs22D4dNZnaB+7g04TzSCBUQGdVwKgUFKmE1HDE9kgQWeuQJnidJbTqS50WoF2i9XjulkbWHKHYvh65fssO/uufKVgp+s61f3Q/L5eGfgnM/uutMjZHYQ4C+vM7JZDAcQOuSNfVwBJAnZTIwD2aiEX7F8rTzN226Rq/dA+SwBsuq4bs2AuzbZNHrevlc8rdetnJkBsoGP3ijqf+dDmUjsz4hp2N6oAJpLZviqAiWT2uy3QZKwbZDPrYxPR5LECCYClGd2Cm8VLZmvzbjbIha4JY5sCbIDIX1SUuQSZgDLopWPGsVep1DX0vQN8IfHHBeYRVeGrHX2zsWYNSQsskcWADYREOWuz9N0JvKiIdBKnL1sA4Gnnp29n4KFK519oOF1PvD6EbUWxATLdgocyI3gD8JlryLPeTID4L5vf6ysp88KIDeL0HRY8C4u0Tgez5dBnVaxrwpGraoFRb5w9iogsfExiDTwp1Snt7jwriMX8/UjfCuVZB7bzmZK3jM29uBVrl9J8g7PTf6EPLkGeyPfx1iESnf0GHDlGTlY9MvrIaZvHDC8WZ6XZPK+R81weYFSRZ1+P9UDuy3p6P98bbefzlfvCGj5uDyTOzq9FWR92Uv3geU/92ePETTIx44MeabnkVfZy1GPlEP9nvYvHtC75hOUfU2jkPJf/ow+mr52XH95fZ397fHq6PO7e/z++5pZfXV6Cp8//Ag==);lineShape=1;strokeColor=default;" parent="1" vertex="1">
          <mxGeometry x="76.47951867978873" y="74.8616110299073" width="685.9323146047502" height="24.38560697445928" as="geometry" />
        </mxCell>
        <mxCell id="J0pLY2TXnMOKrBfPYbP_-3" value="" style="shape=stencil(rVfLctswDPwaXTEkwec5Tf8jM3FqTV0747ivvy9UDR0BrtbKTG+SyBWA5S5IDvzwtn963Q3BvV3Op6+7n+PzZT/wpyGE8bjfnceLPA38OPDDy+m8+3I+fT8+z++vT9PM6enb6cf0h18zzjsKdUIF93v+0qjlvx8+z/MP41HP90XNZ0e1QADrADFSiBBQWAGyhxGCJ28AlTyIwJ6CBpRALqwDIhM7DUjU2jogZYqapdIogwhFWMoKUAN5sA6VKXsNiORBSk1SMhESBpSe8QKQAa2t9uErIFP1ANAo6nWolRJKqVFtWqwiFgxoBsDkKwQUTWtLlHANzvinUGLIktfrMP0C0VrI3QCQHyRjy5LQgCJEKjcRkEWFxOpt0RUDfLC0NgcAgYo2ULsKfg1QtUWbuBwBuA8vxIc6nwCakbesDBJfpGbknXqSaxZ1xQJgDaUv0wIQUYRKbDydiROUd3C2aKglMZDxgyMH/OCdjJuVC33LWO0Cuup3Aa8BTNXCdEO8VorGQdLbEK+FoklJ+j3yaLbb7oKH/4So11a3MaksxLItG/XjlPrwog8wSCmGm5REsEB/odlNSGyI2qsv1nSiP7TzisB1CZPngJiC3XflKFCAIW7UnRm2e9f9uPG45Cjp3n3nPOY639vOe86ucOnx/k0/Oc1O6vSuTM9aDnLQAr4MlHR/9FSA2thqR4oBfSXaLQfbK3Xetk0v5P0Hkrk5JeBSr0eIbURKk9bMJGjb6dCvf39HBR+/VNyZLw/vN5iX8XCYL0DLcXvjkU/zbYkf/wA=);lineShape=1;strokeColor=default;" parent="1" vertex="1">
          <mxGeometry x="94.89364257686157" y="52.083880138178756" width="39.26579450445365" height="19.246989371632708" as="geometry" />
        </mxCell>
        <mxCell id="J0pLY2TXnMOKrBfPYbP_-4" value="" style="shape=stencil(lVfLctswDPwaXTEEwec5Tf8jM3FqT10747ht8veFqlI2IWvd3GQZKwKLxYODPLxtn143g3dv59Px++b37vm8HeTL4P3usN2cdmd9GuRxkIeX42nz7XT8eXiefr8+jZbj04/jr/EL7xNOKokbUd59TG88Sfz74utkv98druxjoRQ7e07EdR2QIxXpAOKogBNKopo6QAgUwQk1EPsOEDOxWwewc+T6oHOhjI6IlLgDlEq5wCC4B9TUiFujKfQ0XXl5E5Fcc3k+olIFR4REZeGT8+sAEUqlj7pQDesAz00KM6+VGLjECggdIGWqwKXQEjunOkJaF4kOTBlE4BqDczUkCsAf1vj6tPlWT7cZ8sS5s3dQ2z5StPZIFL7Y4nGUgL14S5D6jyQRSExxUgV1IFr9/fcLCQP7ZPlRifyLaO2A0Bc/K2WCRd1LjrWlZQDgViQzRfoGVUGmYgBKKkqyklosIAJWRweydQnJSEP0prtUyNLY1BdtPoHEKeuuFwZLq+3/BFQKIA28UEaClTCG3Ecg5FAS2LaWO1kOVniuBbSqimjs/R3ZmQxQuqPrnp9ADlXaYuBk2KpvVKYOIORQtPOJVecoYv3bVGamjJqXtgZTBg4uL58G+HlazIBKBWXZ26zp8oK2HU2b9EM5cWuZtxcwbxcwXR1Q4rKuW4uh7MEJRR3o21GeN6zbJwTLkk5lBiylRLEPOqh6wQnRWfHpElmBusc0mbFQ2h66NjjNwqbiE9SDE2VTDzp4UMOIllbtkAHFoN8zHYlhHny00sBbrYZgtde2jbUWFoy48fJSWwe6LBdoQZWFUrX80Oz3bfe4atl4GVksX9Cf3Hahy/eRJD57l7pvrw+Xi9vLbr+f7n3X/9uLnr6aLony+Ac=);lineShape=1;strokeColor=default;" parent="1" vertex="1">
          <mxGeometry x="149.24011439576248" y="53.76706167010559" width="22.45195251888981" height="21.08096644409477" as="geometry" />
        </mxCell>
        <mxCell id="J0pLY2TXnMOKrBfPYbP_-5" value="" style="shape=stencil(7VjLUhwxDPyavapsS/LjTMh/UMUStkJYaiGvv48mGy9jzUxT3HLgtg+1bUmttuQdXz3f3zztdyk8v5yOX/c/D7cv9zv+tEvp8Hi/Px1e7NOOr3d8dXc87b+cjt8fb8/fn24my+nTt+OPaYVfZ5wG0jChUvj97xdq8e8Pn8/2D4fHmb1kanWwj0w5AwBT4QGQIhUBgEBZR0Aj1m0AN8ppALBSbhDAo88SKRYIiKMPUqnUbYBFNbodCrWwDciWhtEHUVIQpdyoqPeBwQ6lUGpjlDIl4HRNxHEExL7nOqCQljFxhSqIUq2UqwdE4EMLFMYjpUzKABA9uw2QAL0bUxAPQNRoQqoewIB8zeprsUNFO1hMxEdJ0Q6VgstDJcGA7AANks8AzVXcpWi3AHXMw8QlQA0DePIlqkBmLEri6M1U0zYgBiOTq1GrWrxFdSVncUAAJhnjqrUvsV4Q4rlhZS7AiWJBGcNUTAxBQahJ35g5K0IGABEqY1yNwAqOxBcpvQAalI1oR3I3ymtq1uNKMjptmWFQ1JHSGFWThQjsA7HzwM4D8rwgksUUVXTwETLlRFdo8LyrGZZnpDamrCqsTqOpevsAzm//uvUF1mbu9/18fVQGXaLn50ei7fM1xQfwJ1rC6iIBGJDcDrUX3saJ2tgvvN5cG/buQMZQxLjSpW1mjzOQ3Pqp68B61fuOyuwFBIj9vWz2Ach7XKwf4fqh538WTwGqdanXS75aj8CWvauA+kbF64JxFdywcWGv/QZdtU/+HjD7BPOlzl7geYwPwds3oCjFN5t2HtjkUGAfH9hFvdPe7ozqJJohoU1TYvOAhlt+N+cY5RiESNkPFdV0FXXwSjLuUC7Cup4Epeq6A+2N22YHP5aBZthOWFZdw2Jji6Adysroha7W/3NGcJ3jx4zwMSNcqDE6zQVGaZLpMQ+SoNMl+6lcLoRfVw3xeVDBuhR9L6Klv8hsKZ/r+G1qEXAky6vrN1WhzBiZnQ/SurStA0ofzGajmoKwGsA5zQKnlmmmcDKT4WxnVHNNs91JSO55IffWVcIdqn84Y4r4GYydykB7C6FrCvEDklgxjEkIcNQ05rsmNfQ7eGvSdKWAp0DRrg4ze6CRdpW5pif0OXLdvi79baAMjMMaXTwLyK8uhopEBfhr9sXpI5yrJ/sxPgKL7L0vwW/b24fXZ+e7w8PD+dV6/r9/prafzk/cfP0H);lineShape=1;strokeColor=default;" parent="1" vertex="1">
          <mxGeometry x="182.86425432205033" y="45.90721296768686" width="33.92361575434029" height="46.20308967494577" as="geometry" />
        </mxCell>
        <mxCell id="J0pLY2TXnMOKrBfPYbP_-6" value="" style="shape=stencil(lVfLctswDPwaXTEkwec5Tf8jM3FqT1074zht8/cBq9IWYHmnvckyIAKLxQKc+OFt+/S6mYJ7O5+O3ze/ds/n7cRfphB2h+3mtDvL08SPEz+8HE+bb6fj++F5/v361C3704/jz/6F37NfyJRq9wruY37jPRX3583X2WG/OywcYqasHZiav2+f5QCn7ANVYF89RdYBBfJ836F5qkUH5MgX4FBsBsmTb/cdvHPkdA7FUwBJNMFEx9TcwHk9a2djWhy6jmug1PQRmSrAKTIFfUSNlON9B6FG1Q65UAHA+jhwHw6xkU/3HRyVoJMu5ACsgoixZ2Jo77V9o4jit59Pg1nr+FD2htgNNQ4VzWs34F01LxZLTIdGORlzRql6aqbLqAEuCNDFlJYSqKxQwTRAoRaAfaKoO6zLEHZwJoFECTkwVd0vvlJDKYjsGOHylJEQUdUlEGUMQFbKqNDCvmREoKbp2QkHGBTG1xbxO1Rj2y0CkAf2zjJUio407kZEvfQ//P5fdbpSyIEChyEd17lUQcPwwO7aABEUNxPrYCR7UKs6pHhhDoTKX8bJNRpEHSFzCCZZBL1UxshDhtCv2gN0hJus8+UA1Y2jhT9WeIL8baa8DMAAKpATBTOz3VCA9XbMY824OESKQCAqkzN7RKMCqlyaHahRcAMhye7EZsREOFCTs3WTGcaoC26ankWJkag0y1RxaGhKFrt2iAPinkRsFkAhC+rkLpta2fnSHusOgaJuZoHBoRz82BsusFaKoHDS7larE2UUkrOC0dcLhNKtYmDydX3USfdlC8Ma9PzoqoCocSnTYnNHIvDfd49/cJCH61XnZbffzzel5f/2aiSv5msVP34C);lineShape=1;strokeColor=default;" parent="1" vertex="1">
          <mxGeometry x="229.88214355999617" y="69.22467609098021" width="24.67060313527213" height="16.006389778822836" as="geometry" />
        </mxCell>
        <mxCell id="J0pLY2TXnMOKrBfPYbP_-7" value="" style="shape=stencil(nVbLctswDPwaXTEkQBLkOU3/IzNxak9dO+O4r78vVA1TEYo3k95kCmthscCCk9y97B+edxOHl+vl/HX38/B43U/yaWI+nPa7y+FqT5PcT3L3dL7svlzO30+Py+/nhzlyfvp2/jH/w68FJ4m4zigOv5eTRiH9Pfi8xB8PpzFewhDPQpkhgNMAkEpJAUBJR0COFAEgMWkZACVRKADQKI8cNFMEgKLEcfxCg1/QSEVGQKEmAKAUx5RKplJvA6p0mVaAFAGgUmWfEiprE6p5BChVQLopFVfWQAJIt0ZFR4D07roFqCNpLZRQSpXiKJw2Sg0AEpWRdGUKoEq1+bKaMg3MQ00Ux9awE1RWrV2mFUABB2XK6lNSUFbTtTkOkRRwsPkqzZcVzUMRbwI2cQ1wMIA64Zgq6CVr5uC6tUEdrDeDmwelnAEgE29GFHGwIvqUMgmaafOIDaCieWBvxrNTIUDpXr2qUgJ2bxMXq9eBwTzEYHXdmCsyJpvR6pqpwo3SrOyuv2NfYjcB9SMA3WwUKxwDDjn0ieyAVR3eRHCiNGptYkbQTTFvjCZQQUZDOpK23kAbRbwZZ+lL7M340Cd+vdcBgU1fvHNxsPjRJ/HFJFB2Gxe6auyj28PNhIHAqS+yV7JQXaU0ahUpg9yjOcWo1SubW70QmotH6cRGzB+IN3YsH8hnrnX1fIGVmpRugnE5xXxuzB+rJbLpfdgM/3EJfifeHv7duJ8Ox+NyYV+/9zd0O1pu93L/Bw==);lineShape=1;strokeColor=default;" parent="1" vertex="1">
          <mxGeometry x="560.9181552603306" y="55.93663896640783" width="12.137433126827545" height="22.83404585349149" as="geometry" />
        </mxCell>
        <mxCell id="J0pLY2TXnMOKrBfPYbP_-8" value="" style="shape=stencil(lVfbcloxDPwaXjWy5Zue0/Q/MhNSmFLIENLL31eU+nAsOJvJ24nRRrK0K8kreXjbPL2uV5HfTsfD9/Wv7fNps5Ivqxi3+836uD3Z10oeV/Lwcjiuvx0P7/vny9+vT2fL89ePw8/zf/h9wYVAJZxRkf9cToRS+nfw9WK/2+7n9oWkDvahUovLgBio8QCISqrLAGGqo4dUSXkZkJhk9FAS5QwASmH0UO0EhJQLcRoAzQDAgwUgMgIqVXCHopSLD0nCMqBm76EUUgRQam0A5EBZlgHNiBBHZhQqgBotUxnvEDMxSKslMY5pDZEiuIMysSMfkwLyaSAZQ1JsH0mbsxdQNk1Us7MPIEVaKLOzR2rTRiz+woipaikdHZjAIwa06muAqmwAdYAEq2wAd+eQKSFAuwEY8RCg9gBmPSk3ALAAnAdLNNCziu+SHwFC59kspIKYxD0ns0tXQFUTT2o+rRkBWm+7s8IF1ACU2HkwaoC0GqA6PZv+kNyYmguJcQOIlMY6WBYK1Gfw+of6zKTi7KF6qm/bCkeVUbsVf+GGxVPZ1+D/8Lo/n9l6pEMIZp52ns2IxLgDfBJgg2FsGbHgskmfrtPoMbkhAHc1TsNN+p6yNKtcIWwCo0I0I+YIaNb20LyNN60eT8Nil3Y95lrL+2tJ6mKZXDSqQKBpaosTIPZuvrRa6eihRbhaSfB8LbUPmKX1sIyKs7WEQc8w/ruRKIKz5HtMtH0RXIH9UlIogJzeyC33+BbMg1+3UXq4Z3sKvi/H95PTd8aJQpAP0e+QDNkglKszF8Q20uTM0cgsflXD5K/+lWB1A3nX3j+u5mi6ntcsN/sogeBt0LkXQoT959PPrg/t7eP6xnvZ7naXJ+L8d/8mtKPLe1Ie/wI=);lineShape=1;strokeColor=default;" parent="1" vertex="1">
          <mxGeometry x="576.2539272718723" y="57.25689527081215" width="29.476548715221725" height="36.25204631346139" as="geometry" />
        </mxCell>
        <mxCell id="J0pLY2TXnMOKrBfPYbP_-9" value="" style="shape=stencil(rVfbbhpBDP0aXi2PPdfnNP2PSCEFlYaIkF7+vt6i3WADR4nUt2V3DjM+5/gyK7173Ty8rFfCr8fD/vv61/bxuFnpl5XI9nmzPmyP9rTS+5XePe0P62+H/dvz4+n3y8O0cnr6sf85/cPvEy4x9T6hhP+c3jTK+u/F19P63fY5rG9ufRo0OgAIlewAury5CpBEqh5QaDAADJLkAZlyuQ3QSqN4AJOAGLJQqg4gtkMFgEZ1eJYyZKlUKuwAlRiEUDM1L1uyLQFJtUYZjDYVAOjE/kTZQki3AY2peN3KgEI3+z9PUkuUx21AZ0oBMOCRunnZs9QVyjAKdW+lbt4D6TAaadihUgNHGp1qAHRKgKVhJPqgBxM3lKEclRtCAni1LUJOj0wF0WQZJx5gUQP3WdTJ82pvMnCf/V8NRzIeQMaZcuzdd8bDdYSSXmwBg0ixVE5iIl45VgGzCwNeu9nZJ+kUFqDJAC3wKtRA3Zi8EwAMc84+d8+r+RUChNjXyr6U21s6BIMbgFHOFRJfvi1JOwLUKJztoCCFTFcJR8LV1ZyjXjhTRnEGjZBBCRbLsXTZBaA46DHLdJajkNYe67e5FfVd+5zCkcaszC3hygUAVle9YGnMUv4fgPUD4cgScmuT2KhN6YL6aKHm86GZu4D56kWKVqUKdrDZQb3S0/gBvFQyJc+S6rzndYBQDsODQPNZ5xfvpWmqQ0cy4TxLNpIlwFLus3MWgLUgUJdyIg4s5VnK61MizyQu84wpA2JIPcZQ0qz9dfPF0mq6dTQZz4PCEnKH5ua5d3xwVL+YG/BVgONQXKDreDbxcnqYaCl2Z/Mg8IOQ+p6QYJJZz/E5xjDUPFvrfTkaLSol/sTyFkPFh7mo0zjUpTx9jEi74EnIRKwTUwtjP7TB1QvnZ9c7duzh/Xb7tN3tTpfj8+/xNmyvTjdpvf8L);lineShape=1;strokeColor=default;" parent="1" vertex="1">
          <mxGeometry x="621.9405515946489" y="75.95555583725036" width="37.84065083277642" height="27.498312449713467" as="geometry" />
        </mxCell>
        <mxCell id="J0pLY2TXnMOKrBfPYbP_-10" value="" style="shape=stencil(lVfLctswDPwaXTEkQAjkOU3/IzNxak1dO+M4ffx96aq0RThaT26yvEviuYAGeXjbPr1uBg5vp+Ph++bX9HzaDvJlYJ72281xOtWnQR4HeXg5HDffjof3/fP8+/XpjDw//Tj8PJ/we+ZlinYmcfgzv4hMNv5783XG76b9Ah+FgnYEYcoKCEbaEzRQAQSuf/cmjUKpAMJIIXcEM0pxnSCFrL/BIhVeJ2gijb0PRjGsE0yIb6METCqJxOWBBPhctHnY8IEEGFRGUnP4gPBGFhxeQYRKJovOfuhvodTbI2To/EKlP/+S9FV8XxOZRmzP2ONjpGCQEFJPEIooY7XTpCcksgRTEBxBSZHPStk8ATqdWqsvTMooC0JZvNOCbpAbeYnE6IaLmFzzZshnptLX6UiMglrtZVd3GaU5UXAhaoW4lgMnjwHnbKSYHT6g841EHJ6BXNeq+y8jC11BfV9uhKtV4Ro+9/FXaE8MF925aC+cN+cL+oTF6jHufHYeMylyIVO66QIYo88S6jjinpDq+ABVqpm4V7s6UBQQErdGb4RS8wzCKsGPwEVmPs5cbcS+8kq4tylI77XdWS1qYnubtKoyaE718pUiHCLBbyLMTcRX8LHHx9LUZgXvSrvuPiOovNB2iIVeC7QnOXsu8vpxQG8GSITiGH0v4/BzC/ZVqhWVnK8fg2tgarq/gIPYa1s3rsYkAB/J1LmaQOVY82whQsiaz27V9/H14brCv0y73fwFsPzfr/z11fy5II9/AQ==);lineShape=1;strokeColor=default;" parent="1" vertex="1">
          <mxGeometry x="672.1374378781245" y="74.60393065960477" width="42.71582399441104" height="19.51807806542638" as="geometry" />
        </mxCell>
        <mxCell id="J0pLY2TXnMOKrBfPYbP_-11" value="" style="shape=stencil(lVjbUhsxDP2avGpsS749U/ofzBBKppQwQG9/X21Th5U2PpS3ZFdnbV3OkewdX73c3zztdym8vD4fv+5/Hm5f73f8aZfS4fF+/3x41V87vt7x1d3xef/l+fj98fb0/+lmsVx+fTv+WL7w64Rjym0BpfD79CAVSv3vk88n+4fD48pe31ZjL0IC7Bv1Yuxzo5bm9jFSYgMohQoDQPaAGimDHUXd0nYFmQM0RiVYHyL1BgCFstggMQlwOvXxegA4UytzACcKNqwcqFcAEGrWB47EwGnulKL1IRDHOUCiX0EKReC0VAobQAeJk049b1YIc0BOVMUDULHmc9TXmQZhzZ2CpU+JVIDTJflMF+x0qRSt0yVTBKVRebw++5ApgC3VPoJ4Lo02cn+Z0lpLdktRMwNWaN3nocIFulCwtReogRj1RiLOPoC66BsFCCSAz70TW9GLQ9Vm9tUmWYjRfjR8m/gAbsYQPHVigIW9rOAAKmoYUFyOVdRQzlQvLBNUZwugTj/3gf+sIgWwBWja/nHjMqBSE78Cg1aiAEfOWIeSzwDRAQTqRS9ewrTfwdIuvjQa1JdlR65X4bRV4m6DSg05UL3Kx/eo5uaFMBRzZl+9fcLUSS7HxJiaxXXaoR0z++YEHkrXBWr2EeEpM11FpEG9qbg4QIYDkgLEqqkyMyCf25huVryBRdeG+KyZ+Y5gfwwgVOIGgOo0eHVRDa7A6Vb8vMOVCqjUpoprm0hWsQB5qOLFolbYybX1ZwtQrzLYks4e2W6pZyh4uuNo86CtOoNMZxlqcgbEQdjLgOBXqIUqGvKqn2xrg+OLjtZ+uNDqAgR6m2NXW0ogSloIYhlXsYjpsO1EVcc+NKjqLO5Uu+i5DAC0C0jwW4JnmDxer6KEGs9bHzhnusKhZ+neNnFafKg0tLc6XVKlQv1ce2uz5b1S29lh0jmx9DvUDiltGIdKQ48Trlg7nCSZ2HUTHl+4aB+87Eke/Xdiz+5IpacBsB8Nny1UwSPVprlxGf1xZm8zxlrX0N9o46PHWobfd4N/wgNb8NOL8gLFZ3MZkXC+oh/8lUYCOJB8vS1PoP32+2hcYx9P7YLoZPHR26D37fXH29XT3eHh4XRztX7vr6r00emai6//AA==);lineShape=1;strokeColor=default;" parent="1" vertex="1">
          <mxGeometry x="120.90267922667863" y="142.51041280917661" width="100.06143523283708" height="15.230240531040408" as="geometry" />
        </mxCell>
        <mxCell id="J0pLY2TXnMOKrBfPYbP_-12" value="" style="shape=stencil(lVjLbhsxDPwaXwlJlCjpnKb/ESBObdSNA8fp4+/LrSHX5O6OkdtmzVk+hqRG2fDD++7pbbtJ4f18On7f/to/n3cb/rJJaf+62572Z33a8OOGH16Op+230/Hj9fny99vTZDk9/Tj+nL7w+4Jjim0CpfDn8iJHqvnfm68X+8P+9ca+EwdjXzIFXrePhWIyAMkUgYPYqRYDqAF60BQkeYB0AOiUow+pyDqAmbotUqnUGgA0ErEeIvW6DsiZarUAJgaAEqjapEuhCkLSiMUSlwOVsA7QmgQLSGkwswxoxLasjQqwr5GSTSEMj8v2QmJZSBRBX7REPRv7qAElAJAR79VBIQYeepiVqFMArHUhtinHOx4qRdsXUacHtGpvFLIHNJC0AhpbQKUEaOs6Pba3kxIJeFNAszkkoYQ2QJjVlSM1HFOzzHGlfCcJm3VOGNCodguQ0e6rRLh506WAPFS/KHMfA7LWTMnWNdfR8cuAQsUlneFW6vqzpVp3hqCk80jxykPBVcrjezcTJCiH7JlOeZxga0mzBegBU1BIQsEBhCIGNLuXdOQYM13FAzKaIN1bzYeU0BbQzmk+aXiqdx+SljWj1ujU7TwocR2H1G3zaWsIWn194cBCh64CgmvvglujzQZIhxYv108CrlLnekq3MeXLR5AS56QJU0aA4pNWDxmE1II/FVVKMGiNWomb56EAeVVnakmFANIyKtecBlXBFYAHUaljq6SbL4Aqle49SIVrpqhcs8u41bEWlgVcGVpkAKaGBwAWP3HTAYAAKmfsPHQeWnxZ5ur3HKCNoV0T0uzERsCSTAWVW32ahACqJ/Vi66oaqoMZbb6squoEReQDqtfbwYq906w1QRZ0Bbn5VOkBGinMrhoC5VjwC0PnP4GCzpSStjoDjtXexqPXBrRfgtefOhkFxuPE4bQhAb/B8zUNEqh/HNnd6DY0ZnGmYCJUMGlkd2OPxO1nr8/37fXh/139ZX84XK76t7/7u72+uvxfgB//Ag==);lineShape=1;strokeColor=default;" parent="1" vertex="1">
          <mxGeometry x="130.0043219260035" y="170.9808945612524" width="78.97332620587622" height="12.168363033071728" as="geometry" />
        </mxCell>
        <mxCell id="J0pLY2TXnMOKrBfPYbP_-13" value="" style="shape=stencil(fZbdcgIhDIWfZm8zQAg/17Z9j85U606tdqz9e/tmZ0c0uJ47xP0I5JwEBl59bp8/1kNwn6fj4W39M76ctgM/DCGM++36OJ50NPDjwKvN4bh+PR6+9i/z74/n6ctp9H74nlb4nbmSKZeJCu5vngmZ6jzzNAO7cX8FVKEsBuBKrgKg9oAE8gkCbLeUhEoEQKSUDZDLeWYRKIl8MEDRmHwfyBrBG6Amyu4+kDxxMoB3jhwgYu7TVAsVkFcWCs4CTBEoF4RctKeOxHIf8IXYpikHikAIf+MNUW94AGSSaoAoFIE3AlOyeWU+p2E5S9yfQZcQILVuQOwZdJNoS9Ls3wA5u2XZTIHECqeJ9kDpSaauRiNVcAY1QhdBzeLBli5WazpkSsBLV25uRaqWRyFawTQzRRIQYirJzq5atkBqLfouwqUxLBepthWb10vrWZY6UOAeyKCCtDV625mm9gmUC4Wc3VLJMMIE1BsA2FW9JraVlQB7n3c9oMKhCLEvIM1zBPZ25/umNQ1tVEC2G+fFCC8g398O2hNQuQlVu752DBfA+q0ptnqO5JFmeuIuo9DY7KjY71UxdJV4EntifPWorW++R/dC4t7V3DlIB5cHx2bc7eb3yvX//QNFp+bHDT/+Aw==);lineShape=1;strokeColor=default;" parent="1" vertex="1">
          <mxGeometry x="116.86796084247567" y="204.87531245851915" width="4.672539772115442" height="4.665236216357698" as="geometry" />
        </mxCell>
        <mxCell id="J0pLY2TXnMOKrBfPYbP_-14" value="" style="shape=stencil(rVjJblsxDPwaXwlR1HpO2/8IEKcxmsZBkm5/33l15Vh89hgFenNsTiQuQw61sZvXh9vn7SaG17eX/Zftj93d28PGPmxi3D09bF92b/i0sY8bu7nfv2w/v+y/Pd0d/n6+XSyXT1/335f/8POAMwl5AcXw6+8XJiX8+ebTwf5x93RiX0TDZJ9Nerps36TN9kUllcv2qmI2A0ySEgDu6wBBeiOALK3MLhSpxGVt0vsESJUCIlxsMyBJzARgUt0JyEslgCLmAFEsEkCXMjudslRyJUtiOkcpjUueB9SR1yOgipFMpyAt+xOUlBKCGNLsAxJHMo2fndPWREktpTZq+QgIkkmms0qZfUCgjfgAF8NcGpYlkyghiL5ao3RSGqh+z9Ay/sV5QJQ0O40zlWS6ZAmuNLpUUnylS1tRNBJARfXP5Z2bVBLWCj6snGY+VPSlOQ/oY4VEqemozSNAB0POA8zX0sI4krhWfZtZSoM43aPvfGg8gVypV884pUHqbfSUYR8GAy/Zu2aPNBP29C6xuPsU0pNg7xxGWzVq3+aIVilsMgT4NzuAcVSYx126i2iWwkIKpjiXOx1vACSXZPCVB9X5gCixPoysZXdCHk3qEsBpBpyQmNMIu3ofaFirxOqjVFmmqwQX1jK+uQhwmY4S+AmurTbOhTrmwHutZv7/6xwjHWS9lASdPQbXeNJKcvaBl5H6+9D4dMlzr7BB7ovcnO0L1YUL0+aGrXCYM821U73CA9xojhCE35X2kh0PVDLnsjqAjTP/E8B8x4MGMuJD68PFYxoQJVJHLfmxVjvNAwZnmRPdyiiV86O5jzQdAU0SGZwY/m7sdGwApLYhL5w+72nE7ZKA6XM/Ap1YtZajMH2vVs43qLDo7pTHbDkvDLtvMN2oQM/Zq+Fm1GsITde2S6M+ZDByvtKy7JFUQ2+H6k9QUq6QUE6FVb6KJfXiFjKLzSqsMVFXYSUnYF/ODhCpGsZKkVb1XUnbgGrJc2mAU5EBsl8yWhjK6TwgDmV6AmDTLa6WDACYGsY49l2gUo5ire9zlLpKZyeE8fNJ4thmtRIl6IVMfZofQNghIolR8EoPjFVyn+CFHlYYtnsiBasNht/Hb8+YX4QJKy185cUgeC6De6yBhfEkcrKcMyUcvEzFesSePIIfhRZpu1O/QprS8a8jGidvBWwmRN9YYF8Yi/3TAu7Dtpd/fcm7bo8P78+G97vHx8Or4+nv/pkRXx2eKO3jbw==);lineShape=1;strokeColor=default;" parent="1" vertex="1">
          <mxGeometry x="117.90389878785368" y="204.90989720929872" width="109.97994908387295" height="13.130425934970617" as="geometry" />
        </mxCell>
        <mxCell id="J0pLY2TXnMOKrBfPYbP_-15" value="" style="shape=stencil(lVfZctswDPwav2JIghee0/Q/MhOn9tS1M457/X2hulQNyNo2b7LMFXEslssNP7ztnl63mxTeLufT5+33/fNlt+EPm5T2x932vL/o04YfN/zwcjpvP51PX4/P19+vT9PK6enL6dv0hR9XXM4U4oRK4ef1DQdq4febj1fAYX+8AXCiUi0gk7R1QGISsQChXtcBsVGxgCxUEaBQKAZQhEIGgE6JDaBpVhHmEJsBdK0SSJorJQtolQoA5EbVJt0ilbQOKJ26zaEWSqBxtVJuvkoVAFoZRZwBiRIIqQmJpUYOxKBxnSlYQBLIpV580trK0mEOqdsdAgUGgETCCwCgRlMi2AGKMuh4vw/aOMtWJXwCSVedBwfI4xNrnRbbuJjgPOgOwVZJKIIi6XqxVFJuofUypmsmxhjA+zVV6rsmUAMJN/a0SBTR+urHOVFGLFK9cBJGDcUvXvIKjL9HCk5eiEG/dH12YxApAZJOGzhAHi1fzcCxulIFIWmJok1ZJ7OiGlUv2jo3HQHYD5pOZkRypFVKfoeMBk3/dkkr0dGgtUWVyghyddCs4EWVQCza4qqkciRwhz+aPp8jg7trauT0TrUFrFe567aojEeNfZv1DEE8euf63oY1GOsDLKgojb10RdCxGObvzQFpxiAiaUM75wpVYhQSe56q30E17TJ4P8uLdhFMQs8+B+UVsi/ahWIPhJahBVPvEez4TwYJTHNhYptD78P23TdIC+JJgYo0nWFOkQLmRlxomAjUMOWSHf+JjaAPWpKFx2sg5wX1SoHOmRfGmbFxXpw76u4ZBDQZZ2fY8vAa95vQx8F6o8HIQ053AyfaGYp2VpXPHoCONq1JDB4QEfOyt+YKQG3Ls6TcHAsdVEnNP7uQ2vCt9wHK1OrLimytApzsKbkE79CcceZ/7VCcTpZx2K0l7U1bhVzSsnZnAPq4i94HlHGDurlewD689zL8HwB9+Hv3ftkfDter++3//q6ur673fH78BQ==);lineShape=1;strokeColor=default;" parent="1" vertex="1">
          <mxGeometry x="134.7747869091993" y="236.24684288971048" width="31.55426533286459" height="25.474860373602837" as="geometry" />
        </mxCell>
        <mxCell id="J0pLY2TXnMOKrBfPYbP_-16" value="" style="shape=stencil(lVjZctswDPwav2JIgBee0/Q/MhOn8TSNM457/X2hurINSN5p3mSJa+LaBciN3L0/P7xtN5zej4f91+3P3ePxeSOfNsy71+ftYXe0p43cb+TuaX/Yfjnsv78+nn6/PUwrp6dv+x/TP/w64RpTGxOK0+/Tmyw0+t83n0+Al93rFaAMUvGASolvA2RQCTsMCOBBTR3A3kgBgEzKDiBKWm8DzIDRHMC8qhkAOnVvUsskDZoUfOiJMjBJEnH2gEYF5SFTrw4wEimIUk1UfZQGkwCnm1mcI6AhQJk/XzmtINNNow9NqIEo9UrsfaidMthhWGn4PBSdvVrfwTLty7tYZkAeulDyTkumnIDTjZJ3OisO65lfZ0AnAVGyPIziAYUU71C9D5mpgloyH7R7QKKiMNPJA0xGBohqpjrC+gz41gtxjetBXRi5AqHPkrC+fszcunIYkcfIGFUPs80qlYOuGp2ASQbIAdBhaZtJOZikJCBp5nQJQmxGIkCL9GSe83iLPM37wAJlchKUHneAEmPCLtGHfw3sVmlX3xsYC4CRhxf9LaMdjJ7JAyp15EOl7PNgPVqwxJSwQ4Z0sCiJFwClglQyzQZf6IMUyfIsLaxPQF9M5zXSv4KQWqWyBvs74k5aaLA1bBDRjwM0AqyyKwiR1llxz32kUAE+52Q2+SyXBocSHdR9VK17ojrSFIfD1mkAPk8ThXfiIpy3dLt4PitDobe5q4dWdYnD+tzDkW6q0AmbrIZPneLq4x77rZY5++upMwNCuaa5f60DMpXAt0IVOR01yeYaFNYci+/SsFfXL0qv4UnP+ob/fxu4B+gkZT6DnMkwYOeZ2Bjo1uYJfB3QaIQ6Ukhoo+8I7ZYpgTKSBaBSAVQondhrZIazsDEh5ADzwE56wZ4Ej2HLaT5B+9ui+Z8nmvX1PY54DNXLelSwR+bTw62RM9RcJUH2WMvzJdRxPDWe2MxANCeMyDEbIRkFtC9GyIwPCm0+eFyVaMcHthJKTuY9b9XQx24L/gNgD5fLiafdy8vpbuP6e7zMsFenixC5/wM=);lineShape=1;strokeColor=default;" parent="1" vertex="1">
          <mxGeometry x="191.53193491842308" y="238.8643536058288" width="28.247509105040763" height="30.803634728531165" as="geometry" />
        </mxCell>
        <mxCell id="J0pLY2TXnMOKrBfPYbP_-17" value="" style="shape=stencil(lVnZctw2EPyafZ0CMDifHec/XGU52ooiuWTl+vsMsgWKaCyb1tuK6iExd8/gop9+PH75/nAJ7sfb68vvD39fv749XvSXSwjX58eH1+ub/bro54t++vby+vDb68ufz19vf3//0pH91x8vf/U3/HOTy6K+CwX37+2BE+f+f/DrDf50fd7BvRfXAJ8iwUdJCfClEXyTVie8l6DH+JAkJsCncoxXL8UDPhN9tYkrgI/k/DGveCXnT0FKBrxPBF+lob6O6JujZDxPIOcvTjLapzK8xU+c8KYQOU819eb4UWme4KPU+Tz2gPirVkk64bOEfIxvFr5uwtcRsPfxfnx+s4+KViIQRMEBhQuouNnD5oIWqEAFgSKB5GSLmAMaJLIjWZLNQapFKrNqRh2iSuYCMcwCjfstjzQfAimJI4lmAhkCw4kyT5vArENO4knomUCBL9QzK9XZrMWii+vQ5uQpUQLJnmaBMJu1FIkkPdsWm5tAGwXqSCDNAjXQgmoCZS4YNdGOYAKgtOU4awmtic5KW9I6pkMbJW4TUCkkNLzbmuQmkYeljz7hZjO1KsqDqc7xba8oLKktwWatd6e8Xyob5px9IhK1rRZDGTAlMgm/UiXOvu7OJGYqQfwioOQLlpI5oiMqKWW9fy6eY5XJGrRTFGCMJ8YROzuBQpS2WgqFxpRmpcw4jAsoEIjSRpJcRoFMvmAsDHUow273BdJgLbvQYDzGeKRXFKDBJ84jnvnNaN2ScI2pfEcBVrwd8qp+HvJ+N2jXDh9IJXZ3XMZ6w1qRymBmB3gPMZRP9NWG+EjfD7zN8J5kgcc5xEhHY4MFkp6OJ5UiYGPrHIW8Pwxr7/CsEqn4jPjCBosxFuz85dnggjy7pzDx13qeSu1v+kbEJ4rHeKh8sEOu0/ORx0NY8MSeFm8LnlVdJ9EhPtL3Y76UMan+dD4mEj/38t3R84clntng60a07BkLOY9fOnGi+vqlHibeMT6ILyO79/nL6rmTVhYB1jDS4rETDdogujuBTFxgoytyj0RHQXWL0nGQ4SMqkRYBVoWMrGBYxJF4h3RoEXAnC4uyCJDCa5QOJuwuwFYQYUnlyHccdWE3cUwxR8S3RRRgzdio9eppOp2aH5b26k8EoH/oWDQcbglAh5OpSEc/2s1dlU8g/mOTnWLPP5sdFZc1Z9OpYnifzb+Ko2CfsEk+9NicdegzPF+++HVLwI4UcWPW9xBs6I/oh77pYOudiNuadLLpUGzm0SZHdiSVOCsdla4V27ZF3DZOdZjhaC/Xlp0W/YJDT4dtDjvKaZjIQ6CMoVYU8IXOpiYAu3XPa2stg6JtAp6S/rqsqOrYGhwVPjeHUhl7jPt4h9ugTElMSWMme9/usiGtOGTBkdawHHFLqHR735tVBTwbrNPCmnkRjhlT0yoa6+cNWadKYYRhud1Qas+QcCo1PONIDW8rdHzwPj6ORfTP2cdvl0NbjtEhMCNlC9y9yDnD2IAdwBXhNBjQV4HmSsTQ57vf5R7E03uKiPXTS6Bw4FxuXDMdnT0AnBHfrV+9w0/sngHOWnDC9Zmjdk+Y4nxL+sH70VO4/Xi/iv12fXq63eTu/49Xt/bodu2rn/8D);lineShape=1;strokeColor=default;" parent="1" vertex="1">
          <mxGeometry x="503.58898247783986" y="148.56286281864254" width="104.16056150855411" height="115.41392084563063" as="geometry" />
        </mxCell>
        <mxCell id="J0pLY2TXnMOKrBfPYbP_-18" value="" style="shape=stencil(lVnZjhs3EPwavTZ4s/nsOP9hwOuskM2usV4n8d+7CYEjsThTgt50VHP6qj44p/jpx/OX70+n4H58vL/9/fTf+evH8yn+cQrh/Pr89H7+sE+n+PkUP317e3/66/3t5+vXy/fvXzqyf/rn7d9+wv8XueKlpC4V3K/LL03c5Yc/L/iX8+sNPhdpM76KZoIP47iBL1L9MT5VcXnCZ6mR4IMkN+HTUHAXH03dCvj+7RCfxM/6RKnE3uglJ8Bncn53XwB8LASfJKM+ieG9aEF9iP6+SZ31V4mV4KskP+F9EscEkmicBIIbLtgXCOJnC0wlTwTaYnGW7I7xKmFWyHLK6TG+iLYZr5IboYC0+fycJDHKSAAGtKHhPgVQnxKkEf+kQdgNnyXx84HByikpYWZYjeJJRkRkQC00pePw3oZv0uj5cT5fI/Wn4eeMVosgo7wUnfE6TtjFVymgj8WXlCwjQJwD3Jw4knDGYeCkCTQi0FWaU7R5aYQy0Tgw29zu5FxBJ7VIg2Z9BvpAS1KJDSVJhCcY7VkY/Ci0m0ChlcvSsjUUYMRRL34RKKSyaBqF5EagstJVMVf7E0gu6VLeTSATslmY8uKlSGxoW7+4fQJRyQRafsToZukNNtjQwBqCdQSHAolE2gQa5JKK4yqtApk/oYJAE3/HaI8C99waUIBNaj1ws1u9c9zquiST+YElU10I0eg01TNheQLNvrLkhtJK1rPZo0DkKmGdqbQwXRl5IxCYDcsIbEcoS6YqWVGgMELoaMi3HCWVzATqUgUKE7CWtlQyZV5qUhp6iXXRnmqLW+kcec3m21CzQDTcFXoycathOL/S9kjArYRgoVZcLxoffswp7WFWPyoRd8xm1a93oaWYsS3D+lwoKMBmpt5JHQqwod56tYMRSMeMczQN6FJp2Bpg8waSTodVRxMNCmwFd39myrha9VJC3GpTGTaVMoblo7mvgFszDZxNltBUbIxLfHZ1YHSkjPA2qXoUYOuhtRToi4Ema1jO97S4OizGyvvuUpVs3WCV0omH9YTb63C9tXWJrW9O0qy/ZTpjjsMiWcMo5fsBG0+/WSfZOmzr/6yPrauBxist6zDTJ2C5y3pn3YP42jrP/L9UoqTjQuNg/YfJMHk6oS8Mi9sNy8H1SIb7F95obf2EBDWOsl3P2yY2P8HHMdHsCxQUqHy/reiiOK5MjmoKNE1HGWkpWjzgWf+zEENV3Di6j1cc8BwdOaPHGyTHMzSNK8ctAHQKiTp66ZYS1N4URD3gC9En1fVOlDWNHPA6ItH45uVGJdPhwAoCrKiF3gEbHsaVMji3j49jHb3i2apm+ID6KPG/4WHJqTTfDJ+RX6zi7uHv6TPns1W4h+zlHaD7MwKevUPo8QqAbxyPKx19B2J45xHPLowffMdyH28fri90vp1fXi7vg27/xxdA9tPl5VH8/Bs=);lineShape=1;strokeColor=default;" parent="1" vertex="1">
          <mxGeometry x="457.18254393855113" y="141.8837604315762" width="112.60491893005633" height="119.5339334761602" as="geometry" />
        </mxCell>
        <mxCell id="J0pLY2TXnMOKrBfPYbP_-19" value="" style="shape=stencil(lVzJct02EPwaXVHYl7Pj/IerLMeqOJZLVra/z0xUoIgevoZ0U5xpEgRm6Vnw7tKHn18//bi/i/7n89Pj7/d/P3x+/nqXfrmL8eH71/unh2f56y59vEsfvjw+3f/29Pjn988v//3jk0rqX388/qVP+OcFF9woCor+35d/iM7H///h1xfxbw/fF/FeF/HkSmXiLS3ixcXOxEtfxNtmMdkv4t31wsTjupjgXU1M3q9bE6LLRN67sS4nZBfI5njX2ipfnafPr+veh+5iY/Kwm/pGup48Vnk53Ezl8ypfXfRMPsHz+9SmW/Lr/iTRj0HlQTezy4Gufz2v1OYO3JJf15PlRIi++Wkah3yaJ/62883VdboeMK48XKPfC/pW4jyRG/J91f+SqX2J/sPzmwvU2kNc5YerRN/Eftf9qdEF8r3BpXX9NbtG/QPoT20u8eev+1/HdKa31r/uT4uuEn0w/qqVucJb+7naVxP/QN1nWJ/fxePR5/t1/V30mfqHsfqfXul+Gv/Zu8tU3yAWDe8ifX4Pq7yEJ25f6/pHmjtwSx7Wk+cJ3pJf9X/I+RJ7Mf5hSHik+ukDylcqX438oPo5Vn0b3XmiD3FGk7M8WU9yMeN6mD/MqM/6vWT/y9T2k3wi8asa+eoGsa82re8kX8h6uitGntqjdx4UtLhCPiAIe1stTDS0M4+bXDUAZgLhWMDJZqgPbZMQHgBxisxpDfPRoodkl9StDAREpqZxnurJrzA/pIoEjnHQb1DNWCOTeLpONCMOpFoCCMQUhClV8L3c9lOaCzgBAvmGVKetn7w7Y4upT0U4AIWaj7CrMhDA+JzQK1xSpgE5F7Q4AVTmYfrMR06AQlx28cgRFEB2SShZKe96w7HiE6AxQEXaKNvKaFoR3ewIYG+oJvB07viqHBx8Q5vc/BqQ0abFHiJxArViLBcTZepdOwYrAVBn71G9xWsU4iqF/EVDR1i22yS+FQSwbLod6eQJUIgBtTbzmROAMdQ2kMKrMybf0E2OKe6ecVShpD0igKmGcNLQEMAsTswlG0BlbyjolxRAvMar9p8AjHiK9qeMAMZ8esPUSwCMur0y6zOAGJBoP+qSLIm9YVx89CDnIOaC6s3p9rB8Pk1ucA0I08+9HYDfsFmSJKSG/rCSjgCSsbhCQpYqs3EzgQESVrH0KIkTEIDlGoycCADyMAE0BsgmKHZauFCWajLDRryG8OBovmEDqIaR0W+w9GcLyPFdgIYWpwDil0ZD3yoA5r01vTMfzXir5GupI4CRk9GxhNQ7dcZjYA1DXBtzlQKAoop428gByRAszwxomI8Ok77fBKz20DqtAytgVW8J9Z2dw5h11gPAKze6rSugtt1HA9GtPC2Tk8biX6dsRgFQXUyz/nMTsFpcHpMFvhVw2OBbAYnvUp8x86ggD26iHXmrpFGMe9tzSJHWwBWwLklyx8QtDpLXuF8SvCHRqoP9aK1sMnffTSOl0zxOAG19Q6i0rjEOx3gAeKYoAKjlBwmT3PNlAETuNTp2R4LfLQlJ4nzlTflVlRolcCoPPoMrUp9+9zDoWY+7KW9aiVyNwHF7HhlMsPK75wPv8bsDg+KB52TyiK0neb6eZuS59wI67Hf73wfIJy4/cH+oJzLO0dMcxgaEQLuJKh9APnN97hnkN7664Xp2PsXI8+8t73w+ehSadV44lN3+JFwPKzFa/7M934T6sNEfIMxb/cyozxv9Lyi/sa9q5Df6g/5n4x96A3lW0lL9T7ifG3vB/d/4z4H6Ft71/K085AZb/w8V6kIreCoPFJZ2Iqx84yTcrGfMAPvG8w18HOOCBsWdxuEJJK5CpqgTeIdc8wgA1NmUvJmpgFPpu9QGvMrrmMAtQF7DQNwws4F+ZTO2cvGGMSdT3pgxpk3yZD5a0gLKkAdyOU08Nm9YdWmX2lhApc0XBay7pOkZPwf4BkkA+wYAGSPvT9uDq7wULAAortXKa5ZjNpgPn+F3AJgRkFR/c3DdFBM8TwAhLPRApxDGMGMamY/V+CPwnWourL+jrzAVQspFhin4DU4uhmmmeK4bJvooYJM+dQPg9bth3kC/wdTvFMCUyVQIX0vib6xBDk87eVrlNN9AAaaOugfgkIefZ3+zFmxOmkaUjLxTAWxJCS1opxrJDLZsqE+6aJuxyVJtndjOBQfgLA/vbF90LgoPELY3UnhfIZjGXOb1O38xrUJt2gykKoAN3BhvPLg3FkCMCGCjId1UpnQmjChfN1UIBbBupHUzmSqfNhdNU4u2/qqZS0p0blcbpEZbGdPVFmxFAOtcaJPXAojydTv5lGgE0ka1eUMk2tpMiV2NlgHaHHY9Adg4pbbzAwJY96XZgbij3XgNiKZBGinZELYD3RcdGGCTHn1y87NvZbMkZlpF+50MkA3/4XlZtVNDnRZSq5lzFpNilYxiu2C8PK0jOmaAhtUidQjIjOiwUe2LMaNCZ9kvBpkKtbiLUalCU0UdxsoIYF5DM5iKu8QqODquHxHAUsVkSlwCYDatQ3FGNXZjd4YZbwb7UDX6PPtLgHYFzHAiKwrocOJAAGvMaR3GMDLGNWI00yphhphrQLgYPmE2HUydYiQ6mhwaJqMastgordFWZQIMkAwzLpMQXQMC1qsFwOJ08OajK7Vp09OShIINxjZs2Ig8qxZVoxedUpliWHGn6884K/Da5r62HSxpaL7P1G7O753k+f0ybGB4XiIOJuEbs6dxQx4PeFBDMxeEtIRCLyRkc2D8whIy+kbX7w1FqjRf9SapFxWhF04ikAs+re4vxuz4+uHCmLIdfkHOkB1WWfEmKPfNeUH1qe8u4EFHUXg0C8nmAkz3NPx59Fg6+EIvtMBgsV5w4heE1vW3SKOrIWp1Z19AsGuj+x+wDla3F+TW9ddIL5zYC3uDTuIZflMabdl7vKwhPJJFGI/lI6GRmT4fLnDqBUWqD1hC5nTL+AehhGykwWOAyZ6O4HnMDFKjdU5TF02cE3jUN73gSvcfKHXsG/+JkzqVtkQ9BmxtpVB9hnRRNZD7Z9MM4v4Qco7AMwKTswvpYrVEj0UybbDxC3vr9wrl4hf8cL6SphsBt7++7zosN96A4wBpdxUfmo+0OBGwcxJoaSIge+b1T/O7AIHTf4yLvAMSsLEfNteWG66di3fcSNbaC1gr4Hc8Ag7xBHqlO2AE4omXZbQ017wQfxdf3v30xEZc/nj9lYsvD9++vfxIxvn/469iyD+9/KJG+vgf);lineShape=1;strokeColor=default;" parent="1" vertex="1">
          <mxGeometry x="80.75459696393318" y="368.61937524779637" width="710.5161806652047" height="233.28441925184666" as="geometry" />
        </mxCell>
        <mxCell id="J0pLY2TXnMOKrBfPYbP_-20" value="" style="shape=stencil(lVnJchtHDP0aXlHoHX12nP9wleWIFUVyycr29wHCapoNiI/ijRrhTaOxPmAO5dOPxy/fHw6Zf7y9vvz+8Pfx69vjofxyyPn4/PjwenzTX4fy+VA+fXt5ffjt9eXP56+nv79/MUn79cfLX/aGf064OUmSoTL/e3qSmFL9/8mvJ8DT8fkSIDT6DsjECDCozh1QqTQA6MRjB3QSdIK+r26AzFQ7AGQq+x1ypYYATGVXKU8qch0gQnlXqTTiAgB66d0PNUGzSqHBO2BQTgCQqJQN0DJNoNIQmm0HDJpApdGXERegZ+rA06Os950BY9ntfUCiLBtAn4xxHdCF2u44VXJMAAh+EKaJAOqH3azSYHj35GNJJlSpTeK8AWahDBzXur+0ptQA4d0qpT1FLctBeLdE4lSa1IHj6qS6Oy4xEzNADErlriMqzaBTBZeomYT9rSdSiVesXQBQrSyyHHsGDCrghNKpO0CjCZK6aN3aM0iLoaAT8qpbF8Ek6AQtpe4EtRswa9aUEw9AfsjdtyCrz0ClrKV0egAqG1nzJQcAOiH5jmIAYNY0qbloTdRBYUqDxN2BYTXWHlj3aNWyweiEtvrHGdDxHYoPPu0xFZhVG7+rxlorBzCrUgvZO8rQOyAqQHX3m/akgpoiJfHyqIlqjdkjbwyYbp1S8/KCCivlHvQH960r7i8MmlA2rz5wls+wgmVKrvV02KCTv68GqYAg5ZVVF9UIZQGH99+UZy+P8phXdF0UOxQ/HDpthgX+3MIu7DPukdcczqD1B30EMzCV3+NN/Yv95eJfOqwpHOKnQWLBIT5xO+NQUJTKZCTvKK3ap8H3lz0elKejbsl+TpgMmVd4v3UBaB+nv8bbBPkY7KPxfEPevb8uavgx/6r8uCd+VL5Cf7n4VP1xvnOwD9bf52Nanf/D+YjGiZiPssj8x+qPxmeC8eDqm7VsQJ1C/dT8QmTuXvnkiZYOkRPcV6ul69cD1ofi5w6bCIF8fWf8Q/U59N8+ob9Cf9f5UYB84A8qj0ic+PuqPoz2DlRL0B/IG8FyhENDEARQyp5x2ECNTtBx17m4rv3OVRrqJnCd8RHn6J703SBBSqWny5oEq2Ik60qbOrhDHAeUGcP5IQwcgkf2ONIYAPghDk0KKOgEHcvCCQ1xyzD4KQCRSxst3QkVso84vFo5AuVax+MR6iPKtyJ+xLeCDU6II752BFSxbYmQPGCiE+KagqEfbBFSPQCRCtu1uC6eVt/66DaH4Vhg+6JgJcSjbCMVGuGtnZdzXIX50GOK4lGlh/3p6Ct+3wcodXXNJ0Oz2u4xbDdReNt207WfDM1q3XIPvibQSrahdTtgJWCgP9gOeA+NKrBDa+nNexGoBY4sWlT63rI0aRFnsxFiDz4tPHC1LmvtcV7en115ddu/W8mINKABtq/aAdr1EM+wLxa7Simt1cX7gO6XOQOuZuyjy27VComt7XvdlWG/mnPth5c83ubaZ6bi5dHiZy7e9VMeJeecPk7T2uNflW9OHi1yTF6cfQSxHg6jRYUXfgfQIPU3jRyXhDzM5B0Po37DQq6gLgJxVd7NXjgFpqeqE1r0/g+VtwH64+d30W/Hp6fTZ9XL//vvqPro9A22fP4P);lineShape=1;strokeColor=default;" parent="1" vertex="1">
          <mxGeometry x="103.00333683344229" y="345.5894200082304" width="684.4105574470793" height="27.835778723437556" as="geometry" />
        </mxCell>
        <mxCell id="J0pLY2TXnMOKrBfPYbP_-21" value="" style="shape=stencil(lVfbcttACP0avTIse2H3OU3/IzNxak1dO+O4t78vqrKKwRIZv8kyLHA4nEVDfHjbP73uBsK3y/n0ffd7fL7sh/hlIBqP+915vMjTEB+H+PByOu++nU8/j8/z79enyXJ6+nH6NZ3wZ/ZrDQJPXoR/398At/8vvs72h/F4bY/QmrKnAFy3HWqArAPEBNWJwARclEMqUHjboUQg7ZAZWtp2yAFKVA6lQcZth0SAOgJXyE7RUiJl5VALYNh2EBBj0G1gQCdCkAR0Da0CR8chA+qUpPXsoBQCkI4QEAEdmBhStRGS0+kEodkS3mFbzwgYtX2B5JSMQCYfaYuTv1RnRiFAdZoWAHX+1aeR8DRpe4bsnF+AzPml83B9NqHphtXcT1jPPwLzXQ7S4XBPRgJp4puSHYiIoJDF1OOQgFoMraVpXoQIyTgsPNxKCc2kCe3IQUlYYCLU3vl1h2IFbBocb/gJskbps9GsN6PjD7/wINgSPHvqg3gtXw6oaNssTWiOxi/VLfZCFGd0bs9HtwV0Q+wKwZGWe+1FfU3HmKE6Wic0rebKQagO62K0LSgE0VNfob2m6XQvOpjmaC+1tCwD6/olgq0dRKK8a1NKjFrxgj9qcg2T1pcE0UGVW69wyajDvLW8JJNQXx3W7WPfhbo99sFbty8Q2dgHJ38RQ3Pl+GPfwm0+5N0gAh8a++bgL0qY0eDTHHw+hHBZBt2xnHRQkzq5y+aVDC5TAMkP0Mwguw24e13+1F4ePnbzl/FwmFf76//tLi+v5u+A+PgP);lineShape=1;strokeColor=default;" parent="1" vertex="1">
          <mxGeometry x="287.113649749125" y="328.97327089373516" width="17.906213291845006" height="28.675025074047994" as="geometry" />
        </mxCell>
        <mxCell id="J0pLY2TXnMOKrBfPYbP_-22" value="" style="shape=stencil(lZbRbtswDEW/xq+EJEqi+Nx1/1Gg6WIsS4o029q/HzPDSUTHt+ib4+hY4iUvqYEf3rZPr5shhbfT8fBz83d8Pm0H/jakNO63m+N4sqeBHwd+eDkcNz+Oh9/75+n369N55fnp1+HP+QvvExczhXymUviY3jAl/f/i+7R+N+5v1qdIQbr1sVKWdYATldBvECm2dSAL5dYBuVIBQGUqtQNqJC3rgAiV0gGSKYZ1oAlJL1JLVPM6oI1yfyRNs873AfUxKFMGR4ohUOh11Qyjti2Ee8B0jTAI6VOtQsoAEEpuB6VQAVAoVQ8IKCYTJWhffVcd7hOBNC22SCDXjbTfwnRQEIQVhytw00GAhVqlGn0iGGTOgOyATAIcYYAP2lyNdmheVzULgdpoOod4AQIE7HuteAAFbSGGJYAyXSlWDwjynMx5vQm6YgclZ4g0C70GqDNEpvwJ4Gqp4vLWRdCX9rkWdHM7NOgH86i6PChsx1ZqbeE4RYCpvgAa6AJWfEU9kLBFNfugE2oCXwVspLiuYZZKoPiqqd7nQXR2+V2g2Ijqm0AViuBILL5rlDhPgLXRnnqACzUkqz9RCpRAsQY/2C0AkGZr7L15Cpxvi3mYqYIubM2kTxjPI/v+vJ3vLJdYiZGWxH1JR2JgASbpPRbg9aL4swcopMnMbjnqKY1a818HocZAJbv1BSlpN6HotEGzKfJcVFfp0f3xqzfaz9fbw/X6/DLudtPt+/Z/f922V9NVnR//AQ==);lineShape=1;strokeColor=default;" parent="1" vertex="1">
          <mxGeometry x="301.2895073167399" y="327.2807008719834" width="23.551634371599448" height="32.89555215271821" as="geometry" />
        </mxCell>
        <mxCell id="J0pLY2TXnMOKrBfPYbP_-23" value="" style="shape=stencil(lVbZUuMwEPwav3ZJGh2jZ2D/gyrCxkVIqJC9/n7l9dowMmmKN8eZlufo7tEgN6/7+5fdENzr5Xx62v0aHy77QW6HEMbjfnceL+1pkLtBbh5P59338+nH8WH+/XI/RU5Pz6ef0wm/Z1xCjBMouD//XySk9O/Ntzn+MB7fxUtC9QYgGZ4AkqI4AwgeGq4DqsCJAThIJvERNXTxLKGaUez5HlVIvCKobRGSI/EVUu35DrFSQM0WkJcjrgJsxSEgFQroSggKUVqzt0MTQWBDy0gbWiT2hYhsU5L2TU8AAcW2VQoym7OHSxaQEOJ1gFZkSwzxlEmqyDalRo1CBtcAYgfn60LGa4DUUUOQCfl0Qz5duvBxkxyKzUh4UwOinbODMuZFhNrFOyae1UzexOmZOAvUEjXy+AqnXX8KF7N2ZhGpG3m3FriSwiEx6dTFcFdA5gDtAY2nhQ2t9EU3JdApJ0gn/8I9uwH8VwC5jdWmlB2tQTZKKAWeaa23vKnPhBkZuZOm41Rta2fzAU+YIYh2atNYiHQCvE2oLUYl9tXszjZo8jNyftuqdvNrpOa14XWpdK25Pp8Sab2u3yBZoUxpEKvMHKlbN+cqPePYSpPF2Na1XxZVfHzR+eJN6vP49vB2bXscD4f51vf+//6a117NV0S5+ws=);lineShape=1;strokeColor=default;" parent="1" vertex="1">
          <mxGeometry x="292.3551767991205" y="348.30271403476763" width="23.97753414955082" height="7.347334032693084" as="geometry" />
        </mxCell>
        <mxCell id="J0pLY2TXnMOKrBfPYbP_-24" value="" style="shape=stencil(lVjbchoxDP0aXjW2fNVzmv5HZkIapilkCOnl76stNcHy7tnwtiw6WNLRkWQ24e7t+eF1u2H3djoevm9/7R5Pz5vwZcO82z9vj7uTPm3C/SbcPR2O22/Hw/v+8fz59WGynJ5+HH5Ov/D7jKtU8wRi9+f8IlB0/158PZu/7Padefaduc8UGNnH0NnrGy7IPrjOPkbK0B/fu58qiV+2V3dz7ACZScABnMlXe0KMy4AgJNwDmLwsA/Tr2ANiIQGAnMgPAAYxlEylZy05kgyymikWG3QFtEmg0POQhbgCQGm0NkDRE0AM3jlyPUK9rCBNkm0tSYRE1GSLVSqVAIio5IwaPrycRShRoUeIQL2xln/qAaUV5DxAmejrVXCamInFAgKQEHtKJq+aOHSCJyeWiASahgK8OSG0Mxdd6lUt3N4sBR1MWj2kemqLA8ADRShxpRepuLVG4+IAQCeo6LN16X9U84A6AJgc4kF7abAAGIO0PnRF3ArAmbTG1j6XXIqmvBNVxHShZILOlFBatfpNtZbGzDwgDeWN27HWUhlPQEEzZR5iQC5divkqSwVL1Ew55aGCCTFp2hAXMA9+UBxTRdXKgx48Ce58btQDSmscOp8qDrmU7PYzAVCrvBWg8yENiiuAh1yGoFWigIfqBz345uT8GB2IqwWviEKpr6Xq4ATSuSt9lgq3TjW/z0hrKpdtI7SFZR6gAurTmnSKgqB1xTJpTSpaUBopUfIWgMo7XnaRK5cyAARHsT8hRwpgZPlLU7nayQoIutg+pvtNBB45Kj0LSdo2vmCf+qVyZbd3N94dHHFfqCt3k2GhxFcfR9640+p8KVqzG1JFF5NWjx/mHpFrJeOgM2xveQ5OqGD1tbLVtj3lc+bZ5h07k1tP/lyopen0c4ms9uKCaap2sOIiuPl2vWKuDx8X+afdy8v5f4Dr7+3FX1+d/zQI938B);lineShape=1;strokeColor=default;" parent="1" vertex="1">
          <mxGeometry x="349.42390427446617" y="325.43538702031583" width="35.56716511164336" height="45.99815793254129" as="geometry" />
        </mxCell>
        <mxCell id="J0pLY2TXnMOKrBfPYbP_-25" value="" style="shape=stencil(lVfJchpBDP2auaq6pV7PjvMfrjIOVAi4MM7y99GE9AQJ5lV8awa91va09CQPb9un183E4e18On7d/Ng9n7eTfJqYd4ft5rQ762mSx0keXo6nzZfT8f3wfPn9+jRLzqdvx+/zDT8vuCxU44zi8OvyhYVC+PPl8wWw3x2uADWTNAtoJLwO6IlSNQBp1Os6IIYwLBgItbIAhKoobAClUZR1QNP7xABaoJaA15G4GEAPFEGYcqfQLaCMONwFJKFmfbiKw10EF4rNq+jA68iUndeVCtAg1K2CGgZb7srf5o1JCjCIqmNGopCBfKRsgxoLFaCAO2WrIVMCDmQlkvU4EIOk5UbZywdQC0XjUZ08CmjJ3h4ePLwvr7RPRj5RRvZofGzGKjEoA5V3dRPD0LhmUHIZY+rIokLsNGTiDgDarmxlKic6AGhlitNQqQHWZeUMe0BFGpTX2ZvUQJ2lRsVFKUEfUvG8nmsb+JCUSLbNd6qgVah8t/IF9sdUKXniRVQ4WidWnmGv0wHg7g+UQSHkOur2qjDB/SVSzE7+75i7L59G31kSABtR0fhY0uncRfZ039sLCZav9v7lgjV516qVQAEQQh0INxRFGdAIsdOgpEW9LniKapmhqf9hgAhFmzRlaQNR0qBXW/mSYb+ex4vVoKXd8YByI1bjFlHlq8XW6dqpoSjxTYsPIwxrC16yGrQBMmrZdbi4OJ0h+bR7OQ0pjAVubTdyY1A6zEOKYyW92jkF9Ee9zyVOymDXfUAbMbnaXTJwWhZuLgCmhJavZSotgADDqiY5tupmHkCmNepuqZ1XSjRFbtYXxk4rW7ttS9r3Esq0Tla38PAYpmuDpBYPQIn78IPnPwB6+Pe+etnt95fn2fX//j2mny5vOXn8DQ==);lineShape=1;strokeColor=default;" parent="1" vertex="1">
          <mxGeometry x="410.3417144757984" y="347.5919150908553" width="17.296567394894964" height="23.28811084335598" as="geometry" />
        </mxCell>
        <mxCell id="J0pLY2TXnMOKrBfPYbP_-26" value="" style="shape=stencil(lVfLctswDPwaXTEkwRfOafofmYlTe+rGGcd9/X2haiQbkL2Jb7KENYndBQgO/PC+fXrbDCm8n46H75vfu+fTduAvQ0q71+3muDvp08CPAz+8HI6bb8fDz9fn6ffb0xg5Pv04/Br/4c+EaxTbCErh7/SikIT/L75O4fvdqwnnYsKjUIt3xHOl0G7Hd+pst5OoyO34GKlkA6idGAEqsV2hVaogYyUkdg9IYAXNsFa/Jem3AVlIxCZdaPx5C1Aj9WhZFaoIoCIFA1BhCpI5U7a0xk4V5NADFUtrLJClvvjgYktSAKBRsDnkSA1tqVN0tFYSBgCZrb8orUQDloSpWaV7hDrI4s0FoFmBpEWIkwV0aoBWBXRLqwRIq6zMp1kh4RTg7C2FCihpTVpsDqLmqwDQqNumoWuGDAB1/r8LQEcrrGp6pAGtwFe2lNAKiRr7pFFjlUhia1qzChhQrFtHOyKloy9RfZPRCslXnFZIRNZIM+sX9ma0pUzB2VuTBjWtwrFbocBGpiS27AGokalbQ/RbQufD6E1rjbHxIGvIyhqBElghhuCFUKYLOHVH+7uSy9SRv9XNK/fBttEpWV71DWx9q/Y9NhLUNlQndwSdebjlprSqatiZ2J9BmkRGSdwLUO+4vjGWEJp/om/HDSvXV94oHU9wi07LOcrQr03mz8tJjc/RxqvxRGcBYKaqUltAXo6Aq4DCxBZQdWABBcHKiRVOs0J9Q6e+YL2kVY06U0yUXWeqFIFweSV0mifT6wtQc4N6hhmsfKFzabwn/oPJPvgjFF8cgq9NFQzQqeOkDWdIZqRgydcyApbWKU1ceACpJj8MB2KwGZ7Nfg5HbSvPsnw23M0JeDPFT2s41eVq8zkiqzcllqn59olNcPfd9INwfThfg192+/10i7787q/N+mq6cvPjPw==);lineShape=1;strokeColor=default;" parent="1" vertex="1">
          <mxGeometry x="467.37387402283844" y="341.4656901208349" width="44.240216086811415" height="26.011878036672556" as="geometry" />
        </mxCell>
        <mxCell id="J0pLY2TXnMOKrBfPYbP_-27" value="" style="shape=stencil(nVbLctswDPwaXTEkQRLkOU3/IzNxak0cO+O4efx9oapMTMhaT3qTJawBLBaPgW9etnfPmyG4l9Px8Lh5G+9P24F/DCGM++3mOJ70aeDbgW8eDsfNr+Ph9/5+/v18N1lOT0+H1+kf3mccB6puQgX3Mb9JFMrfFz9n+9247+25dPa+UIkQkHoAR3LIQ6acOkAs5NM6ICYqfQpZfeZ1QKrkeg+SqIZ1gESK3AFKpMrrgMotxQaojgoIqWaSPqTqqSJAJR97ABPLOsA7R66nqcZrLoKJKUNe9fO///sECNUKaTJimtLy64CiWlsACgJwK+ynXL94uFxrFUe0LjIgVsUhvThqgbUWT3FBUwYtlGuj/awQqCMUEExIkRLwII6S7wE6F0CTClMwIXnKoCNEKBj1OZh0Uf17C4DayHaSKcAh9Xk7aBSQECAtAJ4SqIMKITlLawG0TmqutnARTKZJm6YhctPvZYAsOkigNDQAMTkUEpSDo2hYqlAaJTXWzwBobBRVTrAAtINEOZHFnEHyzov5jQG6oqT3UCpsUWZKfQ5SKIO55BfTOMdG9GWW7AyIeLbqyurtdU8zGGPOJnDlEFisH3xoqIr6CujVAKL3VtYB7oVot6dv+/eyHhpzzdy1WbOya61AHTEKXispxh7tKGXa3CPYXskI5RvxhMVFhfNVrUn+Bp3syfX84GrpDRl7eyyG/zhqr9jrw9cF/TDudvMBfv7dXtz6ar7W+fYP);lineShape=1;strokeColor=default;" parent="1" vertex="1">
          <mxGeometry x="536.2522914601232" y="329.2650245020682" width="10.624134634129632" height="32.86821229471252" as="geometry" />
        </mxCell>
        <mxCell id="J0pLY2TXnMOKrBfPYbP_-28" value="" style="shape=stencil(lVbLbhsxDPyavRJ6Uzqn6X8EiB0v6tqB47bJ34ebhTYm7R2jN3k9I5GcIaUhPrztnl43Q3Bv59Px1+bf+HzeDfHHEMJ42G1O41lWQ3wc4sP2eNq8nI5/Ds/z79enCTmtfh//Tju8z7xIKU2k4D7mD6WQD19ffs74/Xi4xHtyThFypNjWCZmpeEWIgUpaJ7RCjhXBUSgAz+STwaMMWiVfFN5TqgDfyEWFTxQcxBe9f+0lW8O3quMJ9wJqWROkBAwJuSmCpJwRoVILmpApIM0kRUNgYpRDoWZCWs68TchXIVXKyBaJmrZFKMTohGR9JM1RkHDROttLoSMkJEOQIDEhG6WlF1BZk9VhaaY1POteC8RI50yse8FRyVBmbgYPe4Gp2l6u2Kgm/tibe60TUjX1gbNIWs1bARogeOfsfPS522TtCNYaT/MLd7M3molzkYsqRWNsJodcxFcEqTPK4SYB6JwrVT0jS6AITpBrp2rj1UwOEBJFjb9Q5vYJ/RbrhEl7IEOwTpqGJrCet7eCFM0B1VzfbcEn2PqOkk64SetAvNfOrvfiMb6uoV9Da/vrScQVtrLEr/PlfK8+Wi+WCoP9fTfk4jisV+ijfMEzHKX//ZC6i5fF96ttO+7386Pv8n/7ypNP8wsxPn4C);lineShape=1;strokeColor=default;" parent="1" vertex="1">
          <mxGeometry x="522.3490243237136" y="337.95836814685254" width="42.47164106088894" height="9.681879336130805" as="geometry" />
        </mxCell>
        <mxCell id="J0pLY2TXnMOKrBfPYbP_-29" value="" style="shape=stencil(lVrLchw3DPyavbJIgs+z4/yHqyxHW1Ekl6wk9t8HzBZnyeZMj3ST1w3OEGwADXAu8unH45fvDxdvf7y9vvz58O/169vjRX67eH99fnx4vb7pXxf5fJFP315eH/54ffn7+evt39+/NGT766+Xf9oKP292LhorzcrbX7dfsrHp/x9+v+Gfrs8zXtKED8ZVgk8mlgnvjYsEX0yZ17em+mO8Lhcy4KMj+GRq/ABevMkW8cQ/Uk0RwAfin5BNRbzkY3xMJlXAeznGp2iSAzw73ywmo/+tPcYXa5JHPNlviabi+p7woVTkj+0E3MVXpRfi2XnVaOLMB12A4VNf7s5/IfypeY0vIeeleJn55pwJhRrAAbuN4kcGwFAvJhLK1WJcmAzEdScfGcR5D1JMJqRQgzIfWkgmENbVavwc9VFMYnuoeGyJ804N0vyEpJHHiFFNngMhexNJ5moGs1tzNpF5aTEoylXupTzvQaOvMLJWPIdSTCJsdXbLDt2i2k6vo0eEma41GBsoXSHBa8h6xr6tIA0Glexa91hmv2qQsxhVt4eKBoUcRI4Ycm1X5JVS7eTcDAo96iTdJ4NBIgZR8xKcQ+1hvl+oqqkZDSI5h+CXPWz02i+dAd060Gu/mKsXBR9RySa8MymgActMLhvn0SCRqHaCQdrcxAycsYtfA2PfwqVqhOw5Yky35EnwskM9zzZgKqwv9AxcD8YhY1iSuh3m1RJO8GFJq1Rxdm9sib7SNGxRsCVH04tFARnDyfoQBa0WEj5oHZvxWmxZZVP87H9R/1M8pFNlCFN4FgWYSnoWxBbVhQtUAS8Vx/kuBg7ONwGfjSV0DqhnM1dTxieAs+Kk7VOdl0+9vO0nrIDRG/sDj3IotGdiClk/BJQ5vtNpHx97sX43XoA9/YcjfEI8K2OKrxbwrMZoLAF7hCa3tn4BPGsnFF8i+p+9z9KeBV6FI0a7Hjh7/4DZKlBhrfi1vWH7Dd19dzz1p2D7Ld3BR/iM/k8neA94VhwbPgOeJav1/bf5wKF/HOAD9+fSjrL2sp2vBzxLhiGiTtT1SXpr/MT4Ymqm8R/zQ+b8X+KL6dy9+A38/SviT94HqnWg4xLFB8Sf+N9GwAt/nw/hNf+D/Ey0u2rlZF4/c7WaMP9s87qD8gjTJG0ByPLRxDlbOdur9/7r99HIqAWIezayv1Nr+J5cN7yqAVK+lvVbOqHvA+xpWoxoPd9nlaPWYw2SycCeRPcrXRqNWpWc15ZcBy3MBgzLcLFpbZbejIPhWT4TbzO+SK9/B3yD9Yvyk5yv8hOaO+n5er8t70r5nZOFuoOn7anDOVibNzL9ucnBwYAlFCU8FLA2cGQh6TCDtoEjm8jnnsEHA9ZAtjnBasBE5TbSHV+JVY3a33gwiIxH2zGN50D2kKSXleGkWSFLBefmNVJln5fBthqwvrn4fpEwTOaY9iil54YhGhIb5QmKier7ro6G7c6hAWsHGpmB3ifjyIzd9snEs7F/3kObqZKU1AxmL7WpLb8xgCfkfLZpuCJpk2c+UoUykrZbpUO3zk9IlsrqmpHekesuPWnI3FqpWGVo1FjGHpV5KWItFMfnyBGLf+s9GFsD9gZtesi4FHBUpfk8MwPp1emu1jJzkvRJ0zA9YOs77F49LYdaLUMCPLurKjvdOr38s2v34Uis5aVb9HS01S5H8f3ZqLCl+aU7Y2p/q0tD90T8Kcv9i+dyyne6DN0r8Y/POL3RbovJX9+vNYZui8lTi/pF+PVR6WLl3t3Q4Xruzf+d/2w64Za7Ua5dFB9wmsdGu00czXwodHrTbmbhfo1WWMUnxLNrI8XD9K9QUeES8uFk/bjcQPL3j9ifnfgnrtNU9vGH4t2HznfnYxfKn49/HHOC1z/uX+J8uz493T7kGf8fv9zRn25f/cjn/wA=);lineShape=1;strokeColor=default;" parent="1" vertex="1">
          <mxGeometry x="144.5269818612221" y="416.76064784161736" width="119.0365904537864" height="128.15154450009004" as="geometry" />
        </mxCell>
        <mxCell id="J0pLY2TXnMOKrBfPYbP_-30" value="" style="shape=stencil(lVjbctQwDP2afdXYlnx7LvAfnaHQHUrLlHL7exR2nEZycpa+ZTc+sSUdSUc+8c33+9tvd6cUvr88P325+3X++HJ/4nenlM6P93fP5xd9OvH7E998enq++/z89OPx4+X3t9tl5fL09enn8oXfF1ykGBZQCn8ufwSq/d8fHy7LH86Pm+Xil8dC0o7XVwpi1qdGnI/Xdyp2PQuFcrw+JhJ7IM4UGAD0dbUAplQBoFK1O+ghsxwD1IPOR+q1HgAgUXROCtSAUxNTZxuFRgUByhQGNRrZ0IbXVy8lGGcOfgcpFEGg9XvJ2lBWKu4DhLINXFEqAWpwJYkW0IkBNSQQux2ECthBEnXrpVyoAi+JUMvWS51aAoBCKXu3onyQSr1ZQIWRzhq4ZG1IVEHg9LVMgQugZOTsU1QDJ2iHRtnaUDUfgNF6gOoC1ykALi1xdUdSdgFqlDIScvVShzYsB7DkU6s6KpRxhGlzJAZurUytWy/JKG37gEpsj9R4RGYX0CKxNbplSG99ne2R9BMF7dCp2yNppBGXOlN1bBVY+XrxDUXU0WgHDZw1eqmFGJAcoI4MOQLIDACBU0CZjpSAWxXQXLnHLUsB3ZYZjqMW7jfFEEaCbdooahDLFpYb2qhRce0TN7SgF+wmVwW4D8YfARxdtQMIBvAEaNivcQJkbIMrG2pDAQ2it1EZV8AVurbJS7hRLwAnyXiE8n93iNhLaoMFKF07ziDXszQhBHMpWbdqymXMVpkAjAFlAiANt7C1e6PDlRy1Rqvmqogac8ZpZ0daeiepVbleOZPjRoXqu69yZ0NXJIAWv1p+awZFnKNvBNRB/7WlaJNBNugMZMtxqVAL9EDJGr00XlAFljZrydS1swIvLZ3a7rCJ5b4YKF4nqh9QZVK5ITbUrUH1sGg2p0/6MGtfMjXPVxU0jFTcFDk9JGpzqqiakxtttIAjYen0ukYuY+kqTgFlOPupOHZyQ3dogH05+sCproMTwdTlKk4IHRiq47dA+a0jSbbsKwlqLMleMukOAc1N7Pld15w6GuXcsKiRRrVP65ab/TQOqPTxVAVagpHWJii2MCm9UWvXfuDrTBhtbB8wDbyv0+A+IHthyXiqSTKq+6ZBoD6a0hjRN6oPCcsUxoi+aRBIk8XqxYOSJSLpmikW7yUImGzQlILy249N0mA6lFFS1vUJVta1eWyEACrdwVfumOHMFHx2Rhni5mC9K8ORB3MP1ru7pRgh64LXxB3W4EnEaGMDmT9dXOVrxjoBA/VL8FN9Gs49WO4GDHy1EoZlr5e3DA/jlDzWCMHfMoaROft58rab5KvL9eH10vrT+eHhcue9fe8vufWvywU5v/8L);lineShape=1;strokeColor=default;" parent="1" vertex="1">
          <mxGeometry x="458.45581535728115" y="418.4517807224911" width="200.14898603021334" height="18.801135038579105" as="geometry" />
        </mxCell>
        <mxCell id="J0pLY2TXnMOKrBfPYbP_-31" value="" style="shape=stencil(lVjLUhtBDPwaX1XSvOdMkv+gChNcIZgC8vr7aOKMWWm97eK2LJI1klqtnt3Fm9eH2+f9LvDr28vx2/7X4e7tYRc/7UI4PD3sXw5v+rSLn3fx5v74sv/6cvzxdHf6+/l2WI6n78ef4xd+n/yEYhpOgf/MF7X9e/HlZP54eFqYJ0rBmIdKOW/bVyrZ2Gch5m174Rl+OpRORYBDomwTqJ16AQ6Nmk2hBcogQohUXYREHeQcOkWxSVcKadshalW7cYiZBDl0CrZKEqijtkUqbPtGEoB99Tlnin3bXrtarH1gYlDUnKnYLiQhicChU3MnypRAhKJtixZJAeZQKkWL1SKUQBcqU3LgThQrcAjUbBdSoQaSrppi9FWKoM+1zWE5O/Cc2IsOin3XOIWKgAFtdQ7L2UHBDaahh4n9JQWAI/VCwUIjK3pBlbpOQ/F9qOhInbLtg2IpAGioQ3VHKlSwQ7MDmhvkVXXojvcEYkmYJ5GePRIJ8BghbCNKoQ5aPZJwEc6V3nJw6KsCWUAdYvMOHecgdiB0phhho80UFxECSlr7tEoabTh1yBZ9SiSwSs2zvTYuo6TXDrqkcYTs0NchuY6k3YwWuOJGWddsDLhyNM4dKV0bCEd9GuEKlrzUKHCJDni7CA0TU581OfdByfWDMxopYCr7D//FjF45U3Po0+bjCMWNHEP5MxphI+gEXWFXx986o4IjfNChrFhAeQaBKUwkLKpU0FqslFzjFH1g5IaGXIkH1Omxqd3SapD6VAt4YmK4eGucRLfgmYIi8EroYk02FJMlJs0qg7Iq+t3iVbEewJGUt9x9Y4APCdHsJ25sasACKkbETlwsUKyr3HFLTrV0An1QQeVW0LiCgBziSuoGhQYoq94W2MkTgXpGbyjVLeoII+gdyPH9GCkQQVOsdh4WZLh1kXMbolcSdJHT37Oda3nuvcvoW8mZMqntclk98aUwy3bRnv39QSoEBvv5lDzJfMOe7bQJbhp7VIhMGbtlb8/T4QWLp/A6YwheHHhS+rmaE1JbxbGHj8Swlk5IChRt7DUb3oE85da7OYIy+yXO8OwyYf5uXhDuP/bF5qq5Prx/HLo/PD6evi0t/+8/Jumr04eo+Pkv);lineShape=1;strokeColor=default;" parent="1" vertex="1">
          <mxGeometry x="471.58523625753924" y="465.5919013233329" width="167.39102017252435" height="14.647331282444156" as="geometry" />
        </mxCell>
        <mxCell id="J0pLY2TXnMOKrBfPYbP_-32" value="" style="shape=stencil(rVjZbhsxDPwavxKUqPM5Tf8jQJzaqBsHjtPj78vFVhuL2p20QN98cJYcisdod3L3enh42e88v14v56/7H8fH62Enn3beH58P+8vxqp92cr+Tu6fzZf/lcn57fpy/vzxMltOnb+fv0xN+zjhHMU0gz7/mH5jq/MPn2fx0fL4xD8ShM3dMLm/bRyqxt08kYdu+UHSdvT4h+m175yhIBxAhHwEgUO4jkow9VGIDKOTKNsDLEFKgigBLAAvpStltA8SR6z2oz8oAEIa0MhVwzBPF2gMc5BB8y8kCyK1U1gFaB33hSSQRUElsQwpajKj0pFFcAJUqAmQq3AGidgeopaSkw+ABnENKlHsPmoYAspQ1gP6kQ4SlkRPFgQM6uOJsWpVVAKTLEnED5NhYrQKqp9SHpI/wIKRaSXIHqEIOtKgCkrcAdHAKKAYQSBAHPdd+CNQIOThm4p511YrHrKthndtZbpIwMRU4yaY0GQ8Vtpz+bSbZ5BOUq/7teg83eVhHFKpucIEBqVgAGvhTUtimKaA0FZJqD+LPL5sAk1ctcDBdpwBMXiPcohMH4yGQB2NAAXlooYA46JYbWogxwNcBgHsuBgsQRFqXYLKkGde3rSVdvLi+q+GQiFFaR0BuK2ATMBSfx02dh5b74Bzi0EBwHNdWmzeAisvbkl4S/Z8AbgD4ptLWd1Ck1JPWNYbWYuHW8suWK21nbO1R0w9RASCkvEiFBeDbuN3SAoa0ChYBHHQv+37yxQRFnOqZFCyHCDxMAbD1EEEDqdwxaVWVhoaxqpdkNJlr83wd4KxiUn2fQVpVuXLvQcU06mnVxqXPks9wA6n6zj1p4Tae1/V9aQEsAE0r6DhV88ZD8HDMuKHjNNERAYIdAiqmMzhpveaZLSq6p8HB5XbNW+xd01wbF0tzD/UeBuStuNeLJZqT3JTOolqhpGQrZFT1gppgW3QR6s9BG4Y2z/7OXCiB1LC9sHrYYkrVXNGpwGDMjHDwFsZNdry/X0Cilm27Myx8puqNOVKbzlLVp0Nzo+sYCsd/fJXyobl+eH9r83Q8neaXPrf/27c8+tP8hkjufwM=);lineShape=1;strokeColor=default;" parent="1" vertex="1">
          <mxGeometry x="496.55914613028654" y="512.5521591824772" width="152.90121660063937" height="35.84322868240611" as="geometry" />
        </mxCell>
        <mxCell id="p943f_08dBattFa50fQa-1" value="" style="shape=stencil(lZzZsl3FDYafxrereh6uCXkPqjDBFYIpAxnePlKc3mcvqffXPndwLO3Vg4ZfU3/I3/3+8w+/ffyQwu9/fPn894//+vTjHz9/yH/5kNKnX3/++OXTH/JfH/L3H/J3P33+8vFvXz7/+euPX///tx+UUv/rH5//qb/w76984epBmVL4z/pD6f/7w1+/kv/y6dc7ebyRp6smJC838nK1huT9Rt6uMYl83Nc+r4S/Pu5rj/Gq9T30+eq8nHSnr+svr3Y77vT9ahnpze/PKw+i//+vPe4qXikSfTV3m6+I6y/39aR6RVxPbnf6vn7hG+nnVVE2y10ccrwG3m+5S1suV8bzr/NO369Q8L7u6y/hSkAfr3A/zyLyBuuJa7UP+n5lOJ94tft+q3wR9CVe09CXq4bX9OlK9/XUfk1Yf7rK3Ti0eBW4r3S1u3y2ck2kt9ZkoL6nZWwWfY+H9U9DX9ZftvT5CvVO39E+CP3dPgyRH/79+3oGG2dPX5aEf9v6R7sa/L6cj1n/WN7j1fnf6adYMLAnydrPmQ7y0+/yOfP6hW+kL8sCv6K/6++sB/lsZv3i7lDe2v38Z18n9uK+8l2/5lgWdUtfrhQsPXnreqVh6Qfcb7P6KPQT7Iloa34PfXQOQxlgQdFZFN0BnKg49OgYSCTiuILbQyUdiJs9RBKKsnT8SSrIa4jTrcMyFFhSDm7THf18Tm4PHfcgftd4JmEgpJLbNYtlyOBasyClaRnI1pVoga4qG3xBfPV0Nx1B+0tb//wsGiBLZWz0mexFdYBxzmXC9wx53eszA2hcrc4kicmAU1JE4BgifKHthI9Ab0tuDw29iICIOC1DANFozd1DRVlS2NEsQ4Il9bBE7YmBTqk7VysMAUSj14X8nnwbYReBKsb5KwN9QUyv+8IAbyLgZkbLQIZM0M1wDKRAAm+ac+gEyAXfJLPpjP5hSAA3LUOlPcgpJcsQ4R7GvIYxlWnZwi3DdBG7MHRiiMsbPDFUuDj55+BxGFhv+Wcbt4vHgIvTQ0yWIUGko/faHAPtobh7eEQze4ZqgxdhoIsThlEdA91Ds+GdHjTtodl4U66S4jVhMAGMAm7awyO+fCD6iRGn+sz7TYuGdFrSWAr5YKiYc1F/cz+lwaBeIaH5QlwqtWeY1qGIpSIvKgwG/ogtjPyFcv9Cb0ulXjFUE0lm9HHC0O73IC6GQhNluOuDODHCfMpggvnKZsYzZHSKmyUFVlF3SrVhPkjv4X5xNS0n9o03XTgDKQwmZBIUiKZSGO6bLgVzciqtZkkJ8dIbJHzKUpHLms5l5bESV68YjBHIlZc0rMuSiIKwtxqB+7FKzEKZibfA9pFaHJhpfoO135i73DCIx+BjtQwZY6ANQ2QP5BjiPH7hblsjh5bKYDLmDTMIynAXDYmwKcWrIdLdZcXCVmPYaDdmTNoqw93HxYhR1nToPgYEif4e5oKZL9XBuIcVdb2iL/czaphmFPpgqy6NxKK7vO0Krl/BDHMFjY1ktWa4ncCesWBt/cAr+Jnt+VCWSECRQZ9cphlOIDiulyjD1CEeeOBVGOMFjuCzBEqmxiciTU5kuPgzciWlOycSE6baJZyM9zMVtaRQTAJWE6VHxnmCiEwIIJYCY+h45eAYKKyftl6mDCAYzaFh2QNJXmsLNz4xNFCFVqxfEwZyU4K5olsSYdUWnXlkjOQTODHhxdWxAP8TA9m72p3X4TqAwECTWI4cTlZxSsUyUIpIC2VGHzjIqHnDQIhekKkVPi6e1WitjBoBYgg2KlG/BuIt2NckDoShgcZpQjNYhkIMLgklDHRxpTp8ERag3jOUBQ6eGChKf0PXzwyg04KurXgHtEvZ21ZeUu7Wv+mmKZtebeJAHQp9wXlcvTiqHKaNLJFoCH43aa4YMHEgPtPLEsWf4sS720MHQ5Zc2vfEUG09Pz76W/YM2fnpgMgtPezcMwPcQ4rO7UaM3SRCsKIRUYHisGBJ7RIV7bqNobUrh7oemnPsB4a6bMQTA4m3hhTuWLGOmG2UrgpES0qu1Iplk+ju7VDYDK60z5DbkndczrCgoaM37BYBtEOZONjwAgtvtmzQ8eizVfuB4ulr9Ih2os1RRW4h8WgqYhkmOq+fWH+dgUhY0Iu2heq4fq+8hBGis6ERW0Jci1OMmB/Y/X7BlqvsTQOfp7tfykFuQRc1GDhkGhGOR5fdiMuyvJJP9/uUPnEtY3o+KJ/NrYdi3x09JYx266HywG6/2EKyOc/5rvsS/UJ5tvJwpPf2BM/HyzPFHVt9hKBgp4+UaN3qI56ntyfUsrSzV5RLey99WgW0p1QdOhcjbh0zacWWBBvW65xjrFyyt/0ldfVzvnLq78rSeXKCqhqz2CQmGuZHq/KbnyaMIXpk8P/g9WRLP/HsBRNmF9wG0qy6C25pBx7Xcvtj7JuABBmGlWZhoCydov9sGajeq/GF+wL5L98DrMdKYZuLkSZKtQ/C5ipffWOUNxFp+zDyQO/i1IkRmwbCzdLDlWmkbZPJZNCzS3hwJKK5ArtfjPy7zY9MNOg+2zGx59mnU7iY4vM1XLEtLtVxWE91LaWoMZrScsl/kE/NmVl5puYcTcrZ+yV5qME13aKTqdHF+2FZypeJSxdcUypIU6PvykNq8tWBOAqSat1EYVSM0ASygyl0a7VvcChu2tXMFcgd+iQ9UqRiRHSV1ISJy5bdF7hrS4sRwzJQ8KblDrckcuKtu4mrjC1Sm5INN530uLT9iYFyR1p2yu4LVAmrFqZpQQU23Z3FiAljMu3ENHuI2OY1dilqMgIjuc6CgJsexZaoJxYvtERq0R113I7hOqpQ3WaweRLuGdYSsoPiVEIuFoVULplXu56KlUVtcQ6GntI82vx+p+fuX23Li/b3uU3DAMfKDZ7TFjorpginKzU1blGd1uuPUwtfsl4cOyldAvXUAzJtz+ypy2Q6rT/0sUzb4X3qlPF1pkMvznS1skO3z3QFkUM/0VzJkQfDoWPJMZx6ojzDoevKM1RuBHObTjxus2EYpwZVM2MkQUM93LQZfE1YmPJNhRIGEAr2fY4SB5BTU4U2BimcjtV4ckX2fKwGFSq0500bp1YkNmSjYcZttBuUrYaBL5Vd/5y21lG5lKIMJkvD9e8YwnIcDw5GSDuOY+evwSNtnM7JDCJ3xiNz2hZVgWWHJZlMXG8nu2EcnKAs7IR3zciDm7bUZd33ICjrZJkMA/cv+T5EnXc5oADTaz+YoS+f9nCjh9b57nAh13Z1TtCNklA+QpGSm9DBPfgxjAODH/Q4uBQ/SpKXvX2FJjdDQ3RKfhyGX3Z4m1p6ZiAFStaUHeaYZnJzfYdjdaVMYaDK7XRvj+iueLTKDqDxex9jN+JGU3ejbybKqRNeFXJYBpyJcw2AOgjIoZu9uIqGTMf0HAOhjc0gYMWa72bUsHKrpx9mrNgy0N3LDcpwGMh0X6D5meb61MWOYG9os5U7YaACSSvWGOs4F33BPc+hUSAYAU0puVF0Ag863DstA80m6viw2TRnk7cDyjRUWt3zRpPz85v86sRUgI5xOwbM+GZnZnjIWkfR3bsM1AuXp5OlgbKU2252nbL6fmB/YOJt+yQAvpUSlro8f4H7+Zo7JQKu+nCCG6enJJEWp/10POhDHK62MjH00+clvPBRlTTZfqO3mOIFWnf3wPUn/wbHZCvjW0kDPyHgmvMODMU9m8AtWdkhxIkxU7LFgDlReZKbEec3RJJzVqw6yaaW3sZ2X63H+Wfery1IFmy3d6nPybOnybawaPIUX7mxEsfZDKcCg5+gcMMwox1+38BIxVjYMWgw3kgYwrhXgwYX0Nz69RUplB/bk1IP8mbMYucWpeRSsQPHo5KNRVrFmNDJfzu1AJpXpOrAYWrXIlYLd1FYgFC5hSjYFEzp64Rf0BsEX/jNiWDPvwRMUwULA3M/vPJnfJK+koevIBqnl+Nh/SZ9dHzlz9J37CgI1t4mjogc6tV3z0Dfg3VgiYfrnAeOExNB7pXFyC8XBTs9eXyF0rYIZ6w0B9exE7H2EtbY88OeY5wfNsOZ+CZjNtPrWNoMVnnTQRfTfTHcwhWsKw2H9zlNSxkPMwXreLm1Kli0Gg5ib8QsYCrDvZ3JoM2N0B7J27sW0+xBksUPNu8ZcBAu2FiHa9vBJhhP5vi97+8yufzH21O/P3365ZevLwU//7t9Glj+9PVZ4fz9fwE=);lineShape=1;strokeColor=default;" vertex="1" parent="1">
          <mxGeometry x="96.52266596736604" y="668.5915762815905" width="701.7213563733053" height="293.9425503717853" as="geometry" />
        </mxCell>
        <mxCell id="p943f_08dBattFa50fQa-2" value="" style="shape=stencil(lVjZctswDPwav2IAgudzmv5HZuI0nrp2xkmvvy9UDxURsjaTN1takDgW0JI7vXt9fnjZ7wK/vl3O3/e/D49vzzv9sgvhcHreXw5v9mun9zu9ezpf9t8u55+nx+v/l4cJOf36cf41rfDnatcKlTZZBf57fRJJ5f+Dr1f88XBa4GuiPOIz1bKNL5k0DvhGDeCzkqYBL4lC3jaIjXjcIChl3jbQ3APsBhqogZAtQuYxRYFYtw2kkowxJCauwCBRdQaxl+W2S+ZAGQ2sjmCHUKmMMWSmkECWEsXRpRwpRFAHpqyDQRGKqHCW9XGH0iiCOkShMla6Fpr+bsZQSOvIPSM3ogZ3Ls8GlSJgq9UhjEELc2fL7VJHEtcPrXfI7QaiMu5gHRuAS0qh+ZhRGWZmzkltJCAA7tSf8ZUCqBqTjv5Y0RT4IyRu/dyJdbsEJMXjkf+68seaD6wfKdcVHtTL3raVPwCf++xZxgtav1AWn88I/C/UXNPUzpANvBtFEx/AZJmrOfMNN0CmJB6fAZ9tDo2DqxlDQNOv+0tgzweqebU+yI/4QWr+V9gvpXo8yif33Rf5V+AP+4+T1TfBfnQTy/iD+otXfMj9yVZ+VvxHH5rQ5cCyv0C8sa+2xIP8J88384dBfnIXDwt8hPyPwedTwHyz/nLzpMJ++Sy+9mws+Ym1h7oPjGkPVDDrD9fBpgnBhLMQQvUGAihnekxdDAFLupV+sqIV4JJpQJel+oEcip4WRWGbmZRwvMs2iZFCS8QrwVXADjKrpdkgUARBi+nikaqZYQxir1cqE82KyWDkUrIsoWGhVMcYorEbCV/pH99ZvDeolI1Lrj+tMgrqEJOPYRrhIGhLYhzpLUINTQD15MtwwlftAmX2CJ5XrLvqGDJDRdTsk1wdHk0YE6DuiMbwONTmki78ARUwfPHrR0CiSUCzw1egEAxfRtJJH1BbeHdQEUi5xRHgvWCKHXLHjgAlpuHTqFm0z/AtvCuAwgk/HXr8nQBqys/eIXyMtx/vFxZPh+Pxet+xfO8vOOzR9XJE7/8B);lineShape=1;strokeColor=default;" vertex="1" parent="1">
          <mxGeometry x="215.26257108306163" y="607.4269746676605" width="49.31234622721195" height="71.3383943359238" as="geometry" />
        </mxCell>
        <mxCell id="p943f_08dBattFa50fQa-3" value="" style="shape=stencil(lVjZctswDPwavWJIArye0/Q/MhOn9tS1M47T4+8L1UNFBK2d5k2WtcK1AJaa+OFt//S6m4J7u17O33e/Ds/X/cRfphAOp/3ucrjq1cSPEz+8nC+7b5fz++n59vv1aX5yvvpx/jm/4fcN5wtFnlHB/bnd4Ui+/rvz9QY4Hk4rACdKvgcEYgCQQjV3gKB30jYgReLQA4Si2wbkTJw6gK+UBFhI5PsYfCCXtwExWZdmAIhBhLIBcLN5P62BUukBiQQEHQLF2meJYQxeWtaXwqlLAQA8xT5LWkpowdugk1CKAJCaAw2QK0kBQQuF2AFKpQDqoGQOPfmqOgnSGoegC+ZSdpT6tBYm5m1AHSqdAxXQQFXIiwUIshApewtgULiaKQQLyIAaVaeGATAJyFLVuvZZykICqKGA2lc6x5boTYDJUqKKslRbEhdAIY8AhaTnkrIVAjL5ZAEFZSk2qi1ccuRR4aQ15ArgEJeUfEPHJTCXtF3GLGXQotUNFjIl5JIjdrZwkBquzYgVNdDK0hi84ZLmDdUhUDBcwqOysi2cNlDElfbVAhgBEuXRAuqHMsxWbnTc6gfrkmAuLWRe1SGAGLxTcg6ljoh9te2PFZkySlOhMtC14B690xDIwmcB86Drp4ASGHVQZJsltVkB+1Q7WDnzkemtxWvEQ8USSxd171LxlMBgWiJcKYEK3j8QQxLcJ2y1jGpKpMdUfeU+YJVDSAeEbLWMzmbwvAxF87AXVFGa9+OKqcxw9vkIOFFUU/Sdw9B/nZGlr1hpQ3NrHgVvE5pQo7HVGKpgEavLoJPUJcSJpAu9t6ACNwKX5kYzZx/dbQDAg4oRndpgfikJTAzKa7Sq7jYC2gt6fmMeLGDNnU0MEYv02I53C0CooF5TkW4ADGewZ3sGlUWmbAHMQhffbG4C+jpoKZE4VIA95RaokzRoMYDc6LiV1mgaNLVXbBXOKGLGivjTR/v/AOjFx5eEl8PxePsQsf7ffnnQW7evFvz4Fw==);lineShape=1;strokeColor=default;" vertex="1" parent="1">
          <mxGeometry x="267.41189854743016" y="652.9895584010462" width="27.794284397681167" height="34.42835473454011" as="geometry" />
        </mxCell>
        <mxCell id="p943f_08dBattFa50fQa-4" value="" style="shape=stencil(lVfLbhsxDPyavRKSqBfPafofAeLURl07cNw2+ftyu1Bs0uspelvLQ0occkhp4oe37dPrZkrh7Xw6ft/83j2ftxN/mVLaHbab0+6sXxM/Tvzwcjxtvp2OPw/Py+/Xpxk5f/04/po9vC92nWqcjVL4WBZ0Jea/K18X/H53uMLHTLkbg9yoyX2DFKgUY1AblQYMCgkbg55JOjAQ6sEYSKZY7xtwoGpj6JVSAQadSrUxCAXAUta/k2WpUwY71Eg9+Txkvm/QMhUbtGaGw32DmUQbQxlBreKFR1oHPlAGaZNCMTg8okgqZe8/AIak3Z6nRIDv1G2SIzGKV6hmmwEqCQgh6HltwEwdbyDRJSAhgoTYBlypgIrQgJ0ysc6U0GT9d0pAZppgyQ4PCyiP7S/4DApUC46TO39H+ETMjp+O+IxUxfFfkf940+koIf4jNSdh6oh/Pb8v0IoEwL4eAjV0/jzcXfCos6sgAzt8QP4bcXN4xoJ0gyDiBiGjAV74jMi/+LnBuN4Ub/nMcJDNDcLqt1IEDWJuQL6eE9KLNjjrv1NA51nDA/12GeX4yT8uuB4o2Q2i4CHWfUvnNDS3alCql0DRHAON5XrT49KoqnuTW2zQEoaM1g107NkxedXo168fWmY2z5r5iibHzW2it9HK1g2S77wNH6mOyfVJaxi9fhWvjcHlTVsLKKWbyadXsAYCULwNeL52AikEXxYqnQpaRfDKVwbQeaK//813TnTDpCIen0GGeQyWK3wE+cqDjSs8ao3FK3++SoB460q8FYym5utHPaAC1SeDFZl6iMD//z46/o3Xj8sL52W33y8PpOv//YtIl5bXFD/+AQ==);lineShape=1;strokeColor=default;" vertex="1" parent="1">
          <mxGeometry x="315.44270061684847" y="641.6202326010452" width="35.37975975389804" height="35.23503748759504" as="geometry" />
        </mxCell>
        <mxCell id="p943f_08dBattFa50fQa-5" value="" style="shape=stencil(lVfZbttADPwavxLc5Z7PafofAeLURt04cNzr70vVWNmkpQnyJsvDXXI4PLSRh/fd09t2E/n9fDp+3/7eP593G/myiXH/utue9md92sjjRh5ejqftt9Px5+vz5ffb04Scnn4cf00n/LnYFYphMor89/IiZJLy/83XC/6wf73Bh0C5GoPYsYHeUIxBYqq8bhAjlWwMcqbQgEGn1IxB0Tdp3UA0xG4MGlMBBupxEmvQKIEYUia2Bj1Qj+sGOZKwvaESA4PC/oZaqAGWShuszyzpnbJuUCt1S2tKxGHdoGVqNnGqrgKkoZwEJ75IDdDak3cpjBfL+EypOjxngC8UrFaZBJ1fvD9zVpbxlZp4PPKnDVle8Qmdr6XoCKWA8dX6H4lBvIHVXysiodDhBd0GkEiAqhVfbAAZJ6AP/mZRU0QBN09QwYKrXkAVJ1gFH/35iJ+7kimwryg+iuOn4IJpnv+M+ExUrf9CCVWwnu+mAQlopJP/voA/wHebLx7jZ41/1+R4tJi1/Obs8Iz4bEOOV3xE/HTf4XgQtqr/7PipqEFofRXHf0PxKt5OPqGOz69uFhOjfH0Wn30D0vUDFgwPPc4B8Cjp5aEUfUdJjQJIcRU/iYvWPMhZSZRszNOdQBS6zjQbg5YRUvXksa3im0a8bKF93OZZlVuBT6J9017RtbMDZUgYf89Rp6Hd5S0tj+VhbqUz08vDpo6NadZSG2pfW02jdUkXlox2qLFWzlqSsQ0v4tmvjaFThvhglRQaZTA97oarUpBAt2afZN21E4hX/XfbUIbrBI9eMuPTaJfLCRiza8bLGD/LkrjjRxWBJDQW3Bs8WleESr3DozrzhTz5A/jMvgSmeIGis2+OE58A/9lvs4/x+nD9EHzZHw6X78jb//2Ho766fHTK4z8=);lineShape=1;strokeColor=default;" vertex="1" parent="1">
          <mxGeometry x="367.2980038013154" y="654.2415613023238" width="51.56658545308301" height="38.757004237141246" as="geometry" />
        </mxCell>
        <mxCell id="p943f_08dBattFa50fQa-6" value="" style="shape=stencil(lVZdc9pADPw1ftXodB+6e07T/5GZkMKUQoaQtvn3EfWY+GTYwpsx2rNWq9VpiA9v66fX1SD8djzsf67+bJ6P6yF+G0Q2u/XqsDna0xAfh/jwsj+sfhz277vn8ffr0yny9PRr//t0wt8RJ5UknFDCH+ObSLX9e/F9jN9udrP4VEhjFy+ZWK4DSqDcA1KkAgCVSWsHKEqVrwNao1Q6QIuU4nVAYCbmHmEkCvyEpB5QqCgAKElPolUKAQASRZeSfROxZirRA2oGdbWMswe0CgDihTBABr2hJoR40go4aKHmADodcRmQKTsOmSrQwQDJCZdIQG9YSsWlJFPdLgMqNZdSoIj6WyZdzwCmCJrPhOPeotWUBsK1RXsboIGUzC+afUoJKG3dX4snnUFZrXMcBytrQ36wjNULlzGgLCwagHDWm+w4KBU0BDLF5tsb6hAmijMDFVDWqtT6L8xG1WVEIl5MAUWm5sWwNGkS6G9d1FUhaz07ciZEQlPgIgBIne0O6jlooAC6L5qp+0mWFAKEvRBiVQLNxFT7Itm0B2NpYdAzo9vC83RZ3JYMvtKFUl8cG3jg9ES1H5DmfDSy/b7A0AIhTNvEV3wA3RaSXy+wYUL1hsHnG7t4T/5yvl5uK48pn/WO6t+7r/0/3h6+lsOXzXY77pbz//0yaa/GRTQ+fgI=);lineShape=1;strokeColor=default;" vertex="1" parent="1">
          <mxGeometry x="431.41575569986435" y="668.4041271820681" width="10.905732688396256" height="26.46326137391975" as="geometry" />
        </mxCell>
        <mxCell id="p943f_08dBattFa50fQa-7" value="" style="shape=stencil(fZbdcgIhDIWfZm8zQAg/17Z9j85U606tdqz9e/tmZ0c0uJ47xP0I5JwEBl59bp8/1kNwn6fj4W39M76ctgM/DCGM++36OJ50NPDjwKvN4bh+PR6+9i/z74/n6ctp9H74nlb4nbmSKZeJCu5vngmZ6jzzNAO7cX8FVKEsBuBKrgKg9oAE8gkCbLeUhEoEQKSUDZDLeWYRKIl8MEDRmHwfyBrBG6Amyu4+kDxxMoB3jhwgYu7TVAsVkFcWCs4CTBEoF4RctKeOxHIf8IXYpikHikAIf+MNUW94AGSSaoAoFIE3AlOyeWU+p2E5S9yfQZcQILVuQOwZdJNoS9Ls3wA5u2XZTIHECqeJ9kDpSaauRiNVcAY1QhdBzeLBli5WazpkSsBLV25uRaqWRyFawTQzRRIQYirJzq5atkBqLfouwqUxLBepthWb10vrWZY6UOAeyKCCtDV625mm9gmUC4Wc3VLJMMIE1BsA2FW9JraVlQB7n3c9oMKhCLEvIM1zBPZ25/umNQ1tVEC2G+fFCC8g398O2hNQuQlVu752DBfA+q0ptnqO5JFmeuIuo9DY7KjY71UxdJV4EntifPWorW++R/dC4t7V3DlIB5cHx2bc7eb3yvX//QNFp+bHDT/+Aw==);lineShape=1;strokeColor=default;" vertex="1" parent="1">
          <mxGeometry x="441.8679608424759" y="634.8753124585194" width="4.672539772115215" height="4.665236216357243" as="geometry" />
        </mxCell>
        <mxCell id="p943f_08dBattFa50fQa-8" value="" style="shape=stencil(lVfbbtswDP0avxK6UJT03HX/UaDpYixLijTd5e9Hz5Bj0fUZ+uYoPOL9kBriw9vx6fUwBPd2u16+H36Nz7fjEL8MIYzn4+E63vRriI9DfHi5XA/frpf38/P8+/Vpkpy+flx+Tjf8nnE5kvgJFdyf+YQp538HX2f503heyUukHDp5Hym5fUBi8qkDhECe9wHsiHuLYqIAAEEoxt6FSj7sA3wicR1APAW/DyiUexeyyoMgVQpGvhBHYBBTlA5QGMZIk5RqD6gkKKieSu4AVRMPTJLULF4AqlOAz5okZzVEoKEKSbIABlmomerGh4xMquTY+hBBlBSQDSCRB8XtnSPnLKImrKLPnMahABUK8CYRmRIqvtJMXgB6ggCyMalQQj4kiskCBAEi1WgBXAAgkBQLcEiDt7SkUWIUVk9ebB4EVZ8nZwCp0cIeYNtBFWkIFIIF+ArDamhjamrUELyJkl6BS8NvWi4iDblVztokwMWaV2sSt4Lf6wergalggKWNhKNUW5pWpZGQD7WV2qr4IPUt1b8CVJTpbCfKdAVu0cIWAFv0swDRqPdRWpHhh4hYWhRXKgpgAV82LcdQQ2oxWaaiUhvIw4a8dU4jDnB2YkmFNJYbszf5VBrV7jlsFLDuNgAQg93e9AQB9D4zpb3OF+BySrZUvaMIciBsu8dDItZFwxCAg+0sS0rv8shj0SRUI48clmV3vMujmsuuMehKHlCqro6Gv/QCQC452GXVtYB9LK9LlJj4o101czP3Ll/R/WzJLsDNc5Lv86UTBPUM28HMMF+ffcD8X14/7q+ll/F0mh9b6//t60qP5pdZfPwL);lineShape=1;strokeColor=default;" vertex="1" parent="1">
          <mxGeometry x="464.39146659542257" y="642.4554461428222" width="29.754876583326904" height="50.0267128963535" as="geometry" />
        </mxCell>
        <mxCell id="p943f_08dBattFa50fQa-9" value="" style="shape=stencil(7VjJUhsxEP0aX7u0tLYzIf9BFSa4QjBlTJa/TytTEqOW/WxuOXAbTL/p9T31aONvXh/vXrYbZ16Ph/337a/d/fFx479snNs9P24Pu6M8bfztxt887A/bb4f92/P98vfLXbWsTz/2P+sbfi+4QsVWkDN/lh9SpGz+/fJ1sX/aPa/sPVMMAyAGMv48gAulMgBCJObzgJjJxAHAjko+D0jiwQ0Ab8i684CcyPEAsN3nSUAxLcUGyORBROIgjQ48rFHOZMcaObIB2pcxHks+Afui7Q0lEE+xrX7v9g68vzhi/X6Ub/Ftxlb2YOhKIKvf75B9JB+UfbTAPhEbVU+H7HNz/25f0PxkPaGOMqqP9FdNNCUwD/X94/wIS9F8RrIj68VhAQxzZBRhImxwkAaPDsRDBhH5QGHsMEsKoKRScaN0yFAAPbOuqU5XOm5VOF1UCnmskUQEVMV6XSSRDVRVaZJijfAogSLVkswAIKUsPHAaUJBYJ8oqB0+MQipklAcmf+E4UB5CI985gNIuYXcAYiSAMJ4fQu8EGs2ZYhoBna/nquQVoOAqBUoToCAPrM/ACkAenFYwASD+sGnvWwEMqJKXAFhXyYA+CECHFKFKngAEyIcTIXFr5bVJe0yguazCckxR3TihKOrDPBr4bKjDF3VIDnmYx5sbaa8l0MUVb6aoxRTVIiBZoT7MMpOJEadnISu4SrNUlnaGXSnG1uAt5uMIWVvyFFQBhQ2tiuvOAQfdfT/jPN7+dQbJUgCLie3D35f/hDNObXHpe4AhBh5q39TqzFDH5HMl6S6QBSF9LvOfy/z/vMyvRKSzHi5IVZxHjtWKXpjosQPew+UiBb07c4I5hDjdKkgTEO2noRYlcuBQkw8W9UUiUscIEPQpWLURrPOW25m3+mCw4FCzTgtLBSA1tVreJSS0zouymSkHBjlkvR9lmW2kXS3BlT26SEntC6rbW5hxai3q9gYuFqkNfp+KArVlumpKIgbow7lVo9tLhEgrPni7dtleHt6v8h52T0/LTeD6//rqT35arg397V8=);lineShape=1;strokeColor=default;" vertex="1" parent="1">
          <mxGeometry x="529.3460136309293" y="653.9743445659096" width="27.3495300689965" height="39.97739308566793" as="geometry" />
        </mxCell>
        <mxCell id="p943f_08dBattFa50fQa-10" value="" style="shape=stencil(lVfLctswDPwaXTEEHyB5TtP/yEyc2lPXzjju6+8LV6EsgtV2cpMtrEgsFktwCg9v+6fX3eTd2/Vy/rr7eXi+7qfwafL+cNrvLoerPk3hcQoPL+fL7svl/P30PP9+fbpF3p6+nX/cvvBrxkkiyTeUd7/nfyL59PePz3P88XBaxSch9l08MwlvA2KkGHtApVK3AYHJlw7gK4W4DfCOPHeAUCm6bQBHKv2WYqEMtsRCuU9aaUgA4IVin4P4xtu/WfLkUg8Q8nkbIMp6v0JW3sCWihsAmVLZBtRAuVdGERIBgGpprUIFSEMB1QByU+MWwBtAoQiS1u+913UB6CeANGqySSsgoxwCBbGAimh1A0sKAEkXTXFYQcAKWqY45MCgp0siVwZaAwDE9npdOECrAt5fr6SRQU/rlpLJIVFFOWTy3gIC2tLiEQtAbQHJm6kUCxAkvkhhACCbqUt/rXJg1A9lqLTqF7eoeFuHBCrNzpEzNOWW1tYSySRRyIMl9HVIFgA7SFrPr/SdEE2ReABU4MZ1MNcVD1tqsvJTN0SATG5o0oCb1NpAgfLTnrOFyE3BHwCAFXIl1/OqNDhQatFjtue1MDxHk77uzTKrDQBadXhwfR2yg2bJvh2zy8GrNgDqwHacSZkY5Dz0T1RSgVhTI2QZZrC16mxinNKrtNC4VNpxs4g7UwQZ6zRVjLaJwQKxDhMftL3kbJEZul4aZiUtMRpZgzVuB0erlJo53OMd+n4Z94O8QhyxmHikoNvoyCY+AveS0KauezxSnF4BOBj+I6ivTqamx5YNbsVHG1/Q/qUd3EsLUAL8f/QK8/94fbjfl14Ox+N83Vq/t/cr/Wu+m4XHPw==);lineShape=1;strokeColor=default;" vertex="1" parent="1">
          <mxGeometry x="605.6446289382823" y="630.4051471951416" width="17.991619026653552" height="52.787600810073855" as="geometry" />
        </mxCell>
        <mxCell id="p943f_08dBattFa50fQa-11" value="" style="shape=stencil(lVvJch03DPwaXVkEwfXsOP/hKsuxKo7lsp3t7wNGxadh402PfdMCzHDB0mhgHvTNt4/vvjw+pPjt+9fn3x//fnr//eOD/vKQ0tPnj49fn77bTw/69kHffHj++vjb1+c/P79/+f3Luyk5f/rj+a/5hH9e9FoYMpVS/PflD1JC6f//5dcX+U9Pnzf5HHf5Huav5/JRN/kUQ8/n8hXXkzREsp4aetvlS9BB5WE9PcRI5ff9agytMvm2r0c1lMbka9rl7Y10v2ls8jmGrOfyJTSQz0GFyUvZ5e1+yX5zyLt8SSGR52sY+3mWGoSsX0Pe7aGMdSMn8mBvVUMj8gnPp5qFE/tMoe7rb3Hd+Il82dfTdL3xTL7u8nbj9Pl1P5/WQ6H7rfvzu62f+G9ap3eTT2HQ82n7fnsJqdD19F2+BSX27/bbx/KIs/Pc/WvEi/Xrfj5DqX2av4B8DpH4SwsyUD6T9Y+Q3fM78S8x99svbBQaoCWv8zgoFPaGFnpFhcauLK4bPSgMZhNphbSjAntDRq+cCswL6lrAj+7B7qGhQiX3rGmlraMCuQe1uJx+6g11Gc5BgaVW7ZgrR6WxOou7uEqXZLkl7d45WkjkWLPBg4YKbA8lrmx9U+hByBssHfWOCiwgFTvE4t7AMmbHlG97YLZUJVRFhcwwhZl3QQUlQclyGKCKi3uwJIa2ZG8g99DScsjjHsgpteyihr2BJDbLe+pOiSEXS3zqTomZRhsr0x+jBonFlio7mHemtmS5ssCx6ooj9xWK84dEbcmyJYb7FIRcXO8Ljt4UZKXI+wrD2VKkiHn+ez9WeyeDqCOiA9kxMPO2FYO1dgmNmIadSdrf0DjKs2uKuy29GvyZArho7WGwPRhMAOBpXs6AQEbkX+N655mC7goGtZnxTQWP5fkbZD9WKxaUmYauMzlUI8z4TKHsYcbKHXqsijetjeJDf9NWsHW+JDBvwwZXS9rvYRZxXAHyQ1JaA8xjhSI40iJp2tK+B6viB9t0xqhhKJDuoSzUfOAVWAaa2GW/aVGKWycUASZCaAaa6QMyUIhcHtLDjfs4OyMw7kqZArs1zSAvTF5WIX5zT1rpzagL3kkBqAVdSFYWopi8K63MWUm0mOkWPI1WVhMA7M9PC5mdQRKwoFvtfR8kjVWovconxgQVDC0SBkNtgqWb4T7ixaXdkWdQWJcHvsqzJGixGUp5Qwpkv1mxRkq0ptKBFY+ueuOs4AF7KxRXTOINUuzieu6XbA2phUpLi1fi8NXfWR2cXFzvKzPclxe0n07jiQykvjq1H4vISL0srvO+fHFIkMZDyQg1JdIyfgZw4JZ1sYtn3AWQj7bGyo5IkE0RzubaihV8eNDEZwrA71hqpZgIy5wUL/idIijPovRY6P4oT26tr/LhuB5WUCC0nvslVtTRCeaBsqzkbmxQL+vOhgaNWh2TvFlEo+tHFMGLlRtOOshTmLJQz0Ge1WcD6wi5ndiJ/HAeoCQrmUEnd0AszUhEMs5u4MLHckcFGuhMIaECg69zD84JWGAZd/BxppeGADyuXHV2yc7pKzei6J7PinasgialSp+v7nwolLvjZMwm7jlxovLqnIxBuZ+Vv4WEQ3XCSHhxLKJknmgiYnvLVexELTMh3UWre8uMDYuBwZJ9WQbzKs+KAXGMYKVtyXmhEeUZZS+u70aLsYklK8gzKnpiQ+gDcjDX0AUKpQEMXEJfm7dlDLyCy+uqbk65d8jzlCkx8N0Q3DPyM7sQwWHHLB4iyEcm37CY5CSgFT/Qx+QRyIorRXlGF1jxJm6/jOtV9HjexrfiE4p/oeC4uZQhtJi04rnh8yksK5gyhPPCHXFBuiIXIMAlzqg6Bkkv6R30l87W09F+Co+30YX0xnGZA+oXDNhwlFnkCh071ZYyLvgpaDxZUmJQ1xSAQpbKmfmKTiy8U2UK0QEDSvAWhNNmp8JOqbh6Rnm9lJffHthU5SQ1Vli85BvZ8Vp65QtATGjjGN91eTKPRqYA0ShnzkWWhTZuCp3m1+Hiy+T+OcELmLpwBDIVAIFEWpnNjvz+hprpaNQ8pf2mLUvQTWdckqUJ2njKCExb40S7g3UW+Kk/KHY9Owc6wwGpPihSMAV1DUAG9ue/ocWoFF3bAsAfpkvxZBX3e5gzK6y+KYiORuEFhRsjm7GQ3EMXxFOzHcD2EF27utNBozvt6kGLwMmHR1Rgo46z5Z5QgSXp2eMUVGCBbI4NVLdpNu3YlqkdFRiOzGs67UffIDjQN/fAxzcA+YxBoXwpdxTYSNYcQQHKJXL0nMfy+cMr2GRCrnd2zcb6rL7AsZhBe4xZ3GRC54OYriIZnO9Wb9+cUPc12ODRWG+x96DAMvtkZ/1oD5s2bNgcNgU66uZHe/o66LPCGbuYnaLE5Ai/uSRGRTQXvhvtiBtMReNr1PhEsDgxBZYgHBkxeCu2Ika8mATKbt6wXgz1ennWyoxupKzQS/ZDbkr36/jQwYd6HeFqKZuvHzp1nY+TxeVVBxDDmibxDkpiuTOiwV0MMbvzb50WGY7tm0PYjCNH8msOebNGF8YhS6S0tYeRsfL5P3HkoFJoIZj3y6DsYHKTRYUi84Q4uwhvJbupn0aTvp9DypTNcp3nHC8+coCPRrTS1mpGe5sfgfDnA5kSqf249czPeGh8g/XMXjdDB67zn2jJ7IbgZ8Sg8gWYDp64K85oSaFsVkX/kkxHtKrjdjKNJxWrCZNn/lUdFZRp9eE+UpJMOY6GkyxTnuF215TMvJLApvDcL7mvtqLZQZ7NjTf8yEoyZQdNHtZTqL83173hA6Y//1Hclbz98PoF3oenT59ePuA7/h+/2LM/vXztp2//Aw==);lineShape=1;strokeColor=default;" vertex="1" parent="1">
          <mxGeometry x="170.05880391495134" y="733.7391305640435" width="171.10155463232422" height="157.84714839822095" as="geometry" />
        </mxCell>
        <mxCell id="p943f_08dBattFa50fQa-12" value="" style="shape=stencil(lVrJch03DPyad2VxAbez4/yHqyxHqiiSS5az/H3AvHDesKHpkW5aAA4BAg2gyUv69OP+y/e7S/Q/Xl+ef7/76+Hr6/0l/XKJ8eHp/u7l4VV/uqTPl/Tp2/PL3W8vzz+fvl5///5lSI6f/nj+c6zw91UvuChDKfp/rn/wroX//vDrVfzx4WknLi4b8XIsXl3uHxAP3oWI8pHIRye4nVqJfHYh4fqZyDcXwiIfnCfesd4MLnQiL64UkM+eyFdXcP1K5NNm3k2+M3lxaV0/Op+IfHO+ojw5L9HzMvJkfakueNw/Oa+s7kB7G1k/F7t+IeeVu10/kXgu0RWMt07is2Qb/4XYWzS/cP1E9l90/yj/f8C+nb5beN3kA5MXJ5jvnsRbrc5j/AdyXrW5su4nzgR6U77p/hvIs3xpCm8Z1yfx3NT/BeRZPHR1N67P7O26XAX/dHK+XVxEvOoEr3p1Ef1J99MnvE554fjst/OfCtUJUdAPlDUBtCRIIwrNdVAQF0iKqYKHFG5coSKmq5MiUyhO4JDLhMm3FbKra9bEPnHjSCGsCim5yLwk6NakyEqARRXCGtiiyMhsSBOoNoVCS5kqxBWKFLwTz4W+nkPOrrEvaK6vyaDwTW2I6KWSZj08UshrOpRy9oW84lHptGGxW6rbEocKa2goJlPIiFjSFJSFYUZEDGhb1/ZehUir+FBYg69lWsaHwurW1iaQHym0NZYUmSs/6b7G0nA0C76AndrIcuLW1l1aT1pxpDCFMoFxU9iq6dsKakNCBWHVubkaUYFFq4ZahC01CpUa/VahkXPQhMQtqd9YR9hmQd4psJMeLaT5AksgEdNje971aNcMXad+gg1dKSBWjjpJjBgFxygIiY3RJzfjV2K1Fs1qbBCmsEXz3gbWOyTE++El4tYQZm+9V2CwgfVBwzszIHMZ5IVOs90YoN0/wW5tdQC7B+4xn241ecPuTvs9nZchuGuazcrRIbTVZq1wlW1J5hltCp52fDqSA1DmxG0o2OMKPzZVENPLJHYOBTEjZTomqYJftzRihfMQsCVtpFmbq26F+jMmMcakyDRxQ6VCi+44aVDQHpBtKeHsqeEozOiEW2q0hKq8rKGUZ19waAEO56wZGwCDwxUrJeqPiGSB52eW12Tz08WHqdNAnqaaBmXB9VniZERgPwHqSL6jvTTkNAs6yLOao/IB/U/tLUje8WF17B/JJuH2Qj2IlAxS+YTrUzIx4ywcKRmn8VDQXrq+xmf/yP4Fm4QT/xiEiLTvH/KGrOSAgqM8r02CZNlJfMqca94Z/4JjyGl+WXKZnW+eA/JOnsdbM2Q0L2Me/U/xreDMr/jJ1w9IfjHy98PyGe8a+Lxvi2qbFepwfbA3zAw6BAgokWmOVO/1aKFD4O3fm0LnLWOd89WukUjMqRWTUlsV2nk0rHqjGWJf0IkL+jPNY+alhnVDGzrGeqsNwNJmmRPVoVtXBW1KGW88Um2FllInbXhYu1eFuk2qh+AIvb4/a7fAS61QLl57fbh76+FMAQkFmX47VIAvlJlS70T4XilPoweXDcfBCHyNJbhQO6EsbgT5XoFsKZouRxXOhndjA7sEGvQA2NBoozMYCEGFRLyUA3YWg6chB5cbEs7DBhKtJZlZuVIwLm2SLLtYYvNKNd27KjAOvLaJQjtGjrHsLSLMqAIl2PL0yS6BGLa2NjmWnYJnZK3HlvOMhvR4QX5GdHpsSs6oVI9TzhlZ6zE0zuhgq3BCOHucTM8obY9QOUhzxrJ7Q7yc0PIeL14H8c9vCqu9WuAKSLwkCgKDjILxunMbAj6GyJzSVgUIbwWeyElzsEHK2QUMYKv2GpTCM3dCqdAWblxTrQmUEn2yoAp45dy5DTK78k0h0wrU7RzJX0V0Q7EFXrIGkgKTkjjTWTCBgqcFRRUq3gtTHDMmCM+GiBAg/EbV46wh/KFAxU5G6BE0mah7m2UYvd4CUsGZEv5a3GA2z5SArObySChoj4cdyF1ksv9qHuJEejtQNqZ+J88e1lTE00i5x5JNktF4K9FyHSwns+H6OUpkw30lSkkrcMJ8kWhVlu16/ybPoFpM75/oPVwyD+PS2cMy4KaEPqRL3uA0vYQbz0oK7p/4f9DtKM/wIZralzhXVrGdTXwsz5MKuclHfpEjGG90AjYPKxOdZ827zUSPy7wKTZzZMTWVvo/xH8stjyNgpDSfR1YwUpbS4+0Tb/y8fSDJmgHzXCqeeMYjQ88YMrOZMM/tfaYG2lAaRwY6y5hj4mysCQJPAeqDz5pPxfWH2wvqbw+Pj9cH2Pv/44tr/dP1tXb6/C8=);lineShape=1;strokeColor=default;" vertex="1" parent="1">
          <mxGeometry x="397.2768848648061" y="745.0147441965687" width="139.37512881886846" height="154.02031787555825" as="geometry" />
        </mxCell>
        <mxCell id="p943f_08dBattFa50fQa-13" value="" style="shape=stencil(nVrLchw3DPwaXVkkAfBxdpz/cJXlSBXFcsnK6+8DRsXVsLnTG+cm7QAzJAg0GgDv5MP3h0/f7u9y/P768vzr/Z+Pn18f7uSnu5wfvz7cvzy++l938vFOPnx5frn/5eX596+f3/7/9mlIjr9+e/5jvOGvNz0LlodSjn+//SAh1n9/+PlN/Onx60G8B2mLeA5WzsWTPxaQT5nI1xDX96dgZDnjcQf5qETeQlnXE4MlIt+nNd7l2fslh7zJRyLv61GQV2If6fPx+35TO5dXmeZ7tz9bv7YQM8gbWb/lIAbyldjTapCC7+/n8sUfo79lIfK+fgH7NOI/VYIoyDN/qHWa42B/O5dvMbTVP/0HJi/zeA7+SfyhlRDTD/hPayEr2LOQ83X5tp6XBiX+0zq+vwTj8uCfncKPy3eI9zQtfB2vYhBQUOpxrlBBoUwbXFdICImpTye/ruAxAzHGndQVOgSx0SjrEhIotKBcIa97kBSU7WGLG1FuJVdYlyQXqDlT0DXS1EOHuNJQWKHIwS+ykxZMfarTu84U2roHh0uW/bpOsJoKFkNnm9ZQ13AzofmvW9B1SVb4wRVMUHZJ6WcKfXWNkkJnvlRDWc1alMdDQ8wrhcd0C7K6RumhMCs1POnqMcj20EJZfanqJA5nCnXdQy3zZM4U2mrW2mfQXldwYFxdo3kqJNDtCrouqRnN/a5QV9doFzZ2ptBXsw44Z+wuXtjQBe5TqMyuHYFpxBQzU8UI6kbX5I8BmEaIMDN5xuyoQHNoR99wBYb3ntQTKNSQiJXcEyDJuQKDjdqm+18UGv2C8yTgMe8ef52IuTeDQp9Re11Btz106hqOW3DSB/e6rmFI5m9qxLmEw6IYNGlBpLmxC81IuIedWIVRkXH7SXQCr16SaEEFJWGdK3Ju9yZGWvNW5LkCC1Kv8hq4X6GEJkmoDRUyqzsjpjmPc5bbt6Q15MkHDBNEvzDx6zbCOnW8n3iecx1B+UjWswNrnnn7RB4YYueFbUIc9mRixK8F63hPb8KiGdfjiMPsWefxHzkDy1Wz7XBgMSzM3IFsPWAnVpk4UNo6EZZC4a0RiEsHD8aTPAgiENw0QfZMQdcwEyclXAGqMQcPBtpDYXU7LzRYanMFrP+NFqxDYT04d8UbUAGpLV1i+9RK6xfGL8w1ZJL+95r1xp5B3l2VGxUJNMXrHRwLJYZeAEPKMQoVLi8oz9KBywM2ujw7AMXylkNjspAN9st6Bi6vaH9h6zHMf4U7kGHke8nE7GMzCC9Yx3OZYblTOcs27IFVHjFedGaQb1xecP3Un3XLBZNBn/lzw/XcQC3oobo9ecBv8cgK2iGP52s34jGBPM0cErqAPE3FOrd3iC8ev6Yoz+OxYTyy1o77W0J7MlI9/D+ifQg1GPGF8X7D/7fzYo2j/yGv2LPsXB4zknBANzzgkcKYhxqyIU+SNMRsy6o2y4rTPcMcp/EksIHuoBIcpWUjKxR2dRL0Ax1SjkPQqHXCRRna1iC0zDNNRjrkpJGGmhM4CIVEy46O51YqpeFbsei0uhDXM+wZOW1nuUywi9V4Lhak4V52sNyXERpHp5q83xB6XZ6V3xVTXxda33tZAHHQNSSePGBg4QrK0G7rhroCg/cxcYNS1Ch/HekaNl1oK94jdy92WTdU6hyiHRtYJDQ1b92iStvYo8+yKTRWX0ZsbroCLfAN+639Mls860dhC6FSXl10jm4PCoUEW2lbE473BetWnvnBKflCrRjP/TKgvt55TNgCHt7KWpV7hCp1vjFRBOcTSt973gIoUxD2BcjWO6EDC8ORSE+U8Yz4Wvcw5qpsSbtCoefgSwIQaEojrm+kqsWJhWcKcHOi8jJhKECZoHOR//ULmQ6PB84B0eZMzBUSMMnKfUkRKsuNGco28SuZH9xejER6o2CMH2CmWGkXaExYYKaofHCUZkY7dLLkxsgcRrU33Dsiejue04OL2GFW4xEXsZOlwuMhzhnORSHyoXzEg5N26wvQZxKjCWV0ZFcrSaJjzjFogssyjca0K0AnYpRiJKZdAUq9rHTG7jgHcD/uOrD8sF9Q4Y3pVmexdiiWWGfXFRTuaxjPQBXBOGVaLDlW4zyEzoLblk+MNjBcXvBSHbWpbOUhrXtawgyaJ4ScsYaCl8zorEWwgBaab533gNdxUl8yOh3PhQ6givKsPrftkp/SSlU3ws0vUel2fUeoPaVjQ1cowIvtl/ZYnh2XGtF/mD1z3/2TBdjo9wJIUJY6IMRgvwxI03bpUGhOThmHbzqnXydFOaY/Gl6GV+qMvn3rRhvtJm6dHaPNtW0kbrSc1f06IMvbuluG5SPdaAHFTUUKy3mNoiEvfdcT8YJByDonG1MU6sN2JWRpXyOjBydi9x+81H1T3P94vz/+5fHp6e36+fE53jf3n97uqsvHfwA=);lineShape=1;strokeColor=default;" vertex="1" parent="1">
          <mxGeometry x="594.3530996058737" y="750.2919591445846" width="134.36142950908174" height="136.77754513772288" as="geometry" />
        </mxCell>
        <mxCell id="p943f_08dBattFa50fQa-14" value="" style="shape=stencil(lVrZctw2EPyafUUBGJzPjvMfrrIcqaJYLlm5/j7NbIEmmmTTepO4M8vBHD09g73Zh++Pn7493KL//vb68vvD30+f3x5v9sstxqevjw+vT2/462Yfb/bhy8vrw2+vL39+/Xz//9unRXL564+Xv5Zv+Oeul1yJi1L0/94f4EkP/z/59S7//PR1ks82yVtyvkv5Oskn74r8/tIm+ewv7Kl9lm/OeyXfZ/tLdlbO5bPzaZKv0cWk5APJd+fbuXxxLU/yzVwU9oQ4Pl4V1q84VsiuhVmhjZgcK/SdQnc9nitE4xh0P7LqWKG6UlihC5MsDB+uCngivISkrIEVgvCSNdcqm1SFScmcNVYIJhSaS5ndKjPPXJlNatU18QZkfplzD6kRxaGLuTSfoaH8xBsKAkdniDKXanBxLrfmXROpUZOLcy6hfrLwUi0cuNpkAeH7kp8VqovCJBRkmL1Us8tKoThPJiWXhJdQkFQP1WS29hUTVwWktzh0twGKK+w1eeiOApr7ApIlChxeFOZIZ0C/AOK9QiouCC9BocypYX0YeXboOrvVouvKpDA+Xpthk+C9lPxsUoxSAZH2s0lA2ygqDvVF6R2KS6L/IPsJl0IabjhWAJBFVkjCrcgcanFhDeWxArxOJuURyjMg40NXGem8g3u4VXWg7He0J7ikaEZ1YX5DXE911h86pYYuoBRc3r3BxBusMraG5qrqcfEgNRQIxM5tN8BLItJgP4naroui4OD0QlRjOOGYmgC0qOlKJEaeBUok1KciS3DRjAAoN9URcb75BQiayqPGVAlZoQxqzPYgb8KjlWEb8kH1W84h2J8FvOzo6hJCBRYc4OgHDTqRp/EChawaW2HKA6RoookURnjEV2FXdUbAAjqt0JS5M+RN+BNonVlejRd7ZAQXUUzBmfF5FSXszDnhz6ia8vDGBoNk13eNEAVPpDznc5D1siN3yOcg67EXlm+qgY/mu0V1mQ/MKEz2e+TbjlBUOT6y/WE8OasXwisv87kMNNjEK4vWDXmKbxuE/gxPqB6rXCfUgQabfNb49j754Af3+dFhFFVBB6X9QBrk/1geAEEOlfbgYwIUL9cbcCgBuh8z3jEn8AwQUeKJGQcsSzyxwswMFSHkkx8NfdOxi9rnwN+kkGXGYcoonhUuuCKzoDRQ+4yNMkHWTgXfjaSgFyhg1DyH60G/7rZeo07PZgLKojzS5GzoqLNPk2ZBNkjVRl6xoMoOygPnj7tAHJuVDQ8VXbXnHTOuuk1WnuOWPqPe0AfTXhW6XBcF73lktypbGV7R56RIcYDHqcJsE1JdJTYUiP0hc9WSDAq080ImyjdU7mdIRdX/ema8qFXP+DuG34Jk+K1zR2gmIbXtemBLEpHwfYSRLcnyr7s4NNSDYiGV5zIodNVmExf0smVWJgUmaqhZNcotWwTabjb5hmJMNbvX61BMrzPIIPZFLVwTF3VfbzvOVrq8ZS7y0MkYt/vKB47b524CR0kpfmG7wC1VfrFapwnEX1CMyg10eYU4BCgvDWmLgrrj6Myye5esfJnzAyuoBhECw3FvEpgqrxIR6SYKKHKDQ+5V4SPPy9CmkXXXHC6umfxg1au8vsbyY1e1Are+JvNjyt10BpVEfuDVpvWoaz7/zmtEz3uHi2vKHe28uAb1jPHLJZiACj82cxu+oCA+MHYtexYRr7Cbe72+FeQxZImgKnpeEi8ZJfwTB5b/pLxxV76wx7heLs4LSu7f48/EhPAiXmlcUv1kPrz/2v1KHn/8uOP/8vT8fP+JwPZz/k0AHt1/T2Af/wM=);lineShape=1;strokeColor=default;" vertex="1" parent="1">
          <mxGeometry x="220.28926361278945" y="755.0732436337971" width="105.52393434234568" height="43.865170620363415" as="geometry" />
        </mxCell>
        <mxCell id="p943f_08dBattFa50fQa-15" value="" style="shape=stencil(lVnLchw3DPyavaJIggTJs+P8h6ssR1tRJJcs5/H36ckWR0twtje6rUbsIYhHo8E56acfj1++P5xS+PH2+vL7w1/nr2+PJ/3llNL5+fHh9fyGXyf9fNJP315eH357ffn5/PXy9/cv28rt1x8vf25v+PuCK5LLBkrhn8sDE4v/Pfj1svzp/Dwt1zYtj1V6YeuLTutTl9zYeqvTem2SqD1ufS7Sw+31XeJsf26i/fb6qNLiBChJshEA/Dc7tBj1UGzD4D0CSSoxKQUpfQLUIKoEEKXPZ6gIWiYAk+1/V4CWRpocA7qU4gGFmKQq3RYA2QFp4A69mUQCneFEt0OkccgmWjzASKRLlDzndgvSyKGRCDqbVBsvnr5EuoqRHUxHsewAhJLkkiFb5+SrWVq9DajwyVxANYkyQPG5hGxN5AzwSZy9ZFUaoYy2mGRZAtmhgcRmLxlMIpFuTfLMMqVSFmt9xHWnmZ14jmkpDot3QJRK3NpVwhy41EbC39rBuTUlukOrC9XjVOzQSdq8A6hNiUlI5po8IPPkczuACy2R9C5S5zOkTKmyNJ9LoDaWGiAB37DQMUjFoT+V+dBaJRIyzqD7OdLa6aHVPN0jlwLZ4d3iHRCksw4EMs6zSY2qBqRamd2qhWYrEsFmkxS8ROh+kyHJAxLJVgDSXKJwQyTJh8buGopGKRzgAodcYg0FgDwfOoHuSeA2k+Y4QA9VEoft0HNqoB4Ckz91dIMr1uikgLbAqQew/gBSyckDqNYII0w7QCm3ArCSAKMZ6KXkAmcSWT1ET5WoEJZLG8DVdLh3hu5oJtEeB4ATJ0jvwlKjS3WATHtcbL7HbSXKU8N1IAAKITIkXzZ/BmMkYF5Kw0uMW7cSNR8HZSaZVwKItDK32lIPRjsQDu2UALK1cCLzO+igtltx0KWmaaT7gXRQtsNHAbDYKbLtCauH1UtlCKLjHodyWRs7AyzsDbpnkyK6sqNK5FJjA0ceY961hGOzbvAlikOzM0ClmuPWMNxwrJfyMGBXZJmr+0W3djodQ/I5WkLDIido6nM1UyaGUm/Jre+knvsyh9YhPI7X16FCdgelseMxoHvifqfy49oJYVH2XHf3Jsn5KNChr5u/8yl5CLpjQPHCxOLoqbeGDe/WRNUYBqa4zKFsB8xwfRmNC5vhkq82TOtKUq/uYm0HcF7FqJ1nNQYjWRzgE6dZm9FJ16pvV5vfSDKhnuNczz2MmesYELyy7zxwoBjH3CgpIyZhYHI02Qul+myLSYXej2UdPX8H2HDDrbslNzChzCPrDXnMhDug0Uijgp1QBy9kNjAtg+sVL9wasZwM2LbgckznguiZS3vzXAy2jQyQ/dS31SgTS+qb9HazyS41pM1uNa4CsmeZ0vm85Gf1gveT8lmoO1f6/mX9ndvu4DP7zm363gf2LOK39cHf1fGPAcvr73nH33xQ+R8GF+6HpWIn+uvbyJPT13zggtPbzqsRFFQ+tNxdLXBj8phR/t9Rs9cs3JHF287DtHwR4knw4e9Nd5bjx/unrW/np6fLl7Hr//tPYXh0+Yymn/8F);lineShape=1;strokeColor=default;" vertex="1" parent="1">
          <mxGeometry x="438.6215946277148" y="770.8197787764282" width="83.87499447811865" height="32.97225696292139" as="geometry" />
        </mxCell>
        <mxCell id="p943f_08dBattFa50fQa-16" value="" style="shape=stencil(lVldcxNJDPw1flXNSPP5zMH/oIpAXOQSKgTu+Pf0nm/WO1pvh7w5tjoraaRWa/Zk777ff/x2d9Lw/eX56evdP+dPL/cn++uken68v3s+v+DTyd6f7N3np+e7L89PPx4/Xf7+9nGxXD79/fRz+Q//XnAxSOwLSsOv/79JouW/bz5cAA/nxw2gS9DJXlUKsa9S8mRvUXI9ti+iYbbvYsQ+SZ/9T116O7ZvEuNkn4u0fmyPBBWbAAXfRAIwKXUGVFEjgCIhTYD6CqBJbhOgmQQSw5Kk+RBaFiVJwilr3AGIS2ZSHSBJSQRQRxWsAJUeyDlHUQcI0olLKe/S2qQrATRpcwwVpUGylHX8vALyyNttQPGlUdNw8nYzBNG5uqtJJDEUk+SeoKKZAJqYK+8uhQSN/5fKDChSyRNQzK7j4GQmJ92ipPngrmm4DUjjXNeeRlSEk1qVOh9czuOb26QXPevlIIkE3dGQM40lG017BKjzwYEnA+E9APocgxol1h58A4FHGHO3XbWCqToJGh3sOi7mkYaj0nDlHXkMKL4yBx3RgyQGUG/rHpB4A8XdEyJxKVfPrTGODjlijTw30DJiGPNVf3CdFiuYMs8tvRLbbSouEpOzZymy4COGJiBlodlXKgLOhPUUAcyMgbJQkiFdJ8EGYBxgrrQxfYhLsd+oo0gOAQB3CCiLwAGOiPtghD+0b1QnLQ7NjFTpqS0Rz6ec6fRcUmrOnk0q2LvhmaSSca7Rzx3YM80DMnJCjw4R2Kc53kL7Hva1uHyymQN7V0FtSKZDe0emkOqspnWwyKbijIk89SJv4Ub2hCjVPcHojAIg7vuSF0XOHhBZlsJu5OhQQEdlXXZ9mV7pyx17KYlhATgpPE7yyD7NHtXXIqizFiljPhylKM6FmsUYXWMauY2Kjo8322c//5SKZowbp4zCSMDROHNlHagIwbis3p4xe6peYgeqWTDvqytRqvmhXYMbNfS8oFh8G1N5DUnUnf6g476uCmvjD/Efoq7aG/yBanT5V7rMQryXOZ9G8wnt7m4gEqXFnkc6rv2ViT+979QKXxtjCH45gEts1vSd+jAcCsnp4pOLOdDp3bEaz0GkTiVXL0NgbXYutr93HVnc7I2BuLQsaW6VjWMhOVoDi9vfkSX2hHXD2uzvbMTWMi5BNlcKbOgvHs+90wIdBsiJa7ZmY5wcdb+7/0IamEvYpdt8cA1LGhFeWHBsB2A7V7ZxH7ACCr+p6UN7rwBspuTgUvFLGpbbSlxK6nu6K731s9WBFYAskSdYGqJgBWBOsDG40+PXHjy6xHMubYjkcPI7nzrVzMt+n7xPmS0JOuTcCjAujoIfnigm2tRecqJFWS2V0cCrfeBqZzDEykpoH5KiHXVnfoMX/BoIucEoJnoRj8Kiitnv4ot6ZJ3gGSxCnbLuHxvBRv0mau8Ir1P9vr/6lk5fDmQvlSlfeyUFPFM6XsgWfu3oebHQ7an5fRdUz2b+KMNrqIVdOPq767VxjvrQUwNNfNxdRC/LJQfYbrlkhfbmF1F/AMCH63uvz+eHh8trs+3v/j0Zvrq8Y7P3vwE=);lineShape=1;strokeColor=default;" vertex="1" parent="1">
          <mxGeometry x="625.2798891216357" y="770.5631746556016" width="86.21261147149744" height="35.938890644689536" as="geometry" />
        </mxCell>
        <mxCell id="p943f_08dBattFa50fQa-17" value="" style="shape=stencil(fZbdcgIhDIWfZm8zQAg/17Z9j85U606tdqz9e/tmZ0c0uJ47xP0I5JwEBl59bp8/1kNwn6fj4W39M76ctgM/DCGM++36OJ50NPDjwKvN4bh+PR6+9i/z74/n6ctp9H74nlb4nbmSKZeJCu5vngmZ6jzzNAO7cX8FVKEsBuBKrgKg9oAE8gkCbLeUhEoEQKSUDZDLeWYRKIl8MEDRmHwfyBrBG6Amyu4+kDxxMoB3jhwgYu7TVAsVkFcWCs4CTBEoF4RctKeOxHIf8IXYpikHikAIf+MNUW94AGSSaoAoFIE3AlOyeWU+p2E5S9yfQZcQILVuQOwZdJNoS9Ls3wA5u2XZTIHECqeJ9kDpSaauRiNVcAY1QhdBzeLBli5WazpkSsBLV25uRaqWRyFawTQzRRIQYirJzq5atkBqLfouwqUxLBepthWb10vrWZY6UOAeyKCCtDV625mm9gmUC4Wc3VLJMMIE1BsA2FW9JraVlQB7n3c9oMKhCLEvIM1zBPZ25/umNQ1tVEC2G+fFCC8g398O2hNQuQlVu752DBfA+q0ptnqO5JFmeuIuo9DY7KjY71UxdJV4EntifPWorW++R/dC4t7V3DlIB5cHx2bc7eb3yvX//QNFp+bHDT/+Aw==);lineShape=1;strokeColor=default;" vertex="1" parent="1">
          <mxGeometry x="226.8679608424759" y="819.8753124585194" width="4.672539772115215" height="4.665236216357243" as="geometry" />
        </mxCell>
        <mxCell id="p943f_08dBattFa50fQa-18" value="" style="shape=stencil(lVjLctswDPwaXzEkQRLkOU3/IzNxak9dO+O4r78vVA9dAbI2zU2WuYIILBZLbfjhbff0ut2k8HY5n75uf+6fL7sNf9qktD/utuf9Ra82/Ljhh5fTefvlfPp+fL7+fn2aVk5X304/pif8uuIy9TiBUvh9vcGUyt8bn6/LD/vjbHmn3M3ylCj29fWRScQ+XyiDAFGIgwHkSj2sA/QFpBhAqRQTAAhFtoBGBQA4kFQPYAGAMt54BqgAkBO1ZAC1UIoA0Cg0C9AIoA4lE9vCVSFp64AaqNjC1Thqfx9QqNi05k4tA0AfSZxRA3FJEiWb1lSpIEChbAHKLmEA6JRspWOiAArXlN62cFHzBujdmq90zJRAljpTzhagaQV76EoN16KNcoWAbgunhEeF652KzRJn2A8K8BGUrYB8E8DSOzMx6AcFuDpkGcKzBoiWfCVSRRGabyBtqYzqICPrN0AZWnsfUCm3BQDoUi+DavNXQoXLXoynTWNAWqS1oT0wdbvpqXA4QnDzp5GgCHmhGrppBCgUrAhM9EbUKIP98wZCgErN6ZJgwE16Z4COALfxcQN0zCXVVhuBecjCGsBt+h0xjiH4vOY45uR/htDJzqiDFpsoAbfcIk2FqeIelUXLFSRMddB/ZjYCAiiZio8AC/FhQPQOTnu0AsPUxI8gtR9osjf1P44bqp5gyE1zt/hXQsKkk92ZviJD0O97B/FZkkgFmY3oLVnTRGPD1Kzea2UQ+bL4Tc9a5D4i+tGuBEbmmxfeWNUQuT5O3s/0MBJ33xu3MQ9uacJuQ48LTvuUXgH7e7F5Fd00EprsTZzgtKoD83O0waZWIjizoXYcCFn03lufEIF6hxF9dmZCVQt+6KrjQyNR02HdVaxwIi6EW01uh+8TLbE7FNXgfU+FnRkW3hAe97TNrdpFWCs9ndrch3FKWVnumh5TTadLcssZNbxv3ziovbL8Q0fzd5frxb+vAC/7w+H6EWH+v/9qoLeuXxz48Q8=);lineShape=1;strokeColor=default;" vertex="1" parent="1">
          <mxGeometry x="232.88679901077649" y="811.8801599690405" width="70.51119316292079" height="14.916254231027096" as="geometry" />
        </mxCell>
        <mxCell id="p943f_08dBattFa50fQa-19" value="" style="shape=stencil(lVjZchpBDPwaXlUaac5nx/kPVxkHKgRcGOf4+2hDDTBath2/wa6a0dFqaVjpw9vm6XW9En47HQ/f17+2z6fNSr+sRLb7zfq4PdmnlT6u9OHlcFx/Ox7e98/n769Pk+X06cfh5/QLv8+4TKVMIOE/5weVCv978PVsvtvub8wL1dFcEmVZtm+U8mAfmUJctg+xv+6AFKkCgDBFGQFCAjySSE1HlwrFtgxQJnWATCEBgKUkeJcSAFhO8pjVpMQFADIl8TGgExJTayMgUAVBJ6NBHQENpjULqQu6UcwAkHwdcutP7gOaz1JJVMEJpVKO/oQAYqiJWH0MEgC7rXDJ1wG51BJFHgBaiREgk4yF0wz7oRWS7AEZdHSrPcQLoJACarRGPJJPLa0oS61LxA35UoWA5tIaIb0nQPF1QDI2uTTS2zqk4BiCo7eSIJfqrB8S7GkrnFYPaAiQKc5O+IB8aSSfaWtBMdhrJ8ZCBZ0QSdSnlRGXIvHokhWO0TyJ/fcuAKWKuBQpOiEL/cylLIUxBmvRjOpgZRpPsAZCM84K18a0WosmTI3G/gSYpeqnusUQkUum1a7jTNqwCNTq65CAS4F5Vurc1XPxiJHfNoIKDkJnq0BEea2URjJZQyTE79ql9H8BSm2MIUfIvlr8oC6l8/E+IHhhsqGEZlZRP4JuSnN/8GYfdcNzNLPXDfNJgU/JttCxcqVB7TPxdVKWTfBBmuKM4EVg5aKJZfxMISZZybMYQFpVfCHsBAFB265eXQyhK8l9gFCYbUxIv237TqP22Q7FoHCB/QwyeqE6JD/ZbW9EPX0ZsrcLFhCNQOKk9bK937U35o8yFrRHtGTvmweOUO6Ncr1eBcAJ7ip90RfK0PvmNjGod8FfxgL03Tb6MVaGU0p7ZFdzpCrq13/GV55Oq6t5QfcX3+4C856Jk0skvIrM1Kc32oL5p+7YH5rbh+t1/mW7253/Dbh976//9uj814E+/gU=);lineShape=1;strokeColor=default;" vertex="1" parent="1">
          <mxGeometry x="231.83089457909614" y="835.8394803511123" width="63.36156945638254" height="19.541438436381895" as="geometry" />
        </mxCell>
        <mxCell id="p943f_08dBattFa50fQa-20" value="" style="shape=stencil(rVfLbhsxDPyavRISJepxTtP/CBCnNurageO2yd+X262UpbKeokBvsqxZvmZIaQp3L/uH593E7uV6OX/d/Tw8XvdT+DQxH0773eVw1dUU7qdw93S+7L5czt9Pj8vv54f55Lz6dv4xf+F1wXkhqTOK3duyU6n63xufl/PHw2l9PlNy5jwX8hEA9HvFAGKEFjiRtx4l3ZHbgFCoWkB2JMCCMBWxAE+VbwPUgRytS4FKuA0okdgGrU4G4FJJlAaAUAJpLZUkWEC3uQmoTOJGQMgAIM3jlUuocDU3j1dBZ5ClWomTpQa3qLa55Bw5G0RMVLGJbPMqniIgUy2U2AK0EMhCGqOWSg4BIjkbdfLEFQB8E1gHMHlQuVI+KMg3lW8DpOllFcMfmW8DAgVrQRJFxG8mZyWnIgwJAHzLeq90poKC7jnpgIBdCmOlQ6WIJCdUBkBqabhVB7FBq+QESU7LxCPAI1HHFuJKowxiqF0uHaCqBXVQPRRrIXrsUqUyiFooYonWAdB3bgG8bQISYXPVxhSGJlDI/U/AzCUbQy4tDZuAHClbASlZErCgA2doM3PjAVxSfbEt3Kp7bs/R1OjfTajkQKl1Ug901ZkRgQW9bARrYe48wEIeJ3sSciBozaoV3EwlIAduYulq6FnbPO9G5vkIefFhXHkVD9CCaz2x5wdOBt/uRZ2mkBLacQftwwapVxybHA87hbTW1o47isD3PJINk7OOvjtixLSe53fnHSCa55E5DAfgXPdh2sDkKPOdDTfjW/O/Xsv/el4X72+Ap8PxuDwh1v+PbwbdWt4b4f4X);lineShape=1;strokeColor=default;" vertex="1" parent="1">
          <mxGeometry x="458.8323464368266" y="823.8299633646764" width="27.64078381277386" height="18.14696943416584" as="geometry" />
        </mxCell>
        <mxCell id="p943f_08dBattFa50fQa-21" value="" style="shape=stencil(lVdJcttADHwNryjMYNaz4/zDVZYjVRTJJctZfh8wDG0CItvlG0WiR1gaaMwgdy/7h+fdEPnlejl/3/06PF73g3wZYjyc9rvL4apPg9wPcvd0vuy+Xc6vp8fp9/PDaDk+/Tj/HE/4PeEacR9Bkf9ML3KgWP69+TrZHw+nhX3INH5bAEqi1rcBMVK2gJqpJQDoFLIBtEgStgHSSdgCmHLdBiSNIViXAgkIOkeqzQfNvA0okYoF5Eo9bwMqU7eA1CiBoGsnLgYgGhWoQysUbKWjZgkE3SMFm1ahCmLuQpyMfaAKQu6Joq0zU2rAPlOJzh7VoNf587u9oPMbRe8/zE/3LBJKgNdq36z/2gegwoHZB6CUiPAPqtgAAjH4BwWwAwjkkKa0Ww7pOPh/xDqgULU5CoUYkSKTRA+ICCDUq3cpoxjinPU3QJoHzjogUHe8iPPQ3AIk61Kngsqg9rYRyjwMtuybPT9Rwo1cXOeTIKKKJyrPL7ZqFoqzZ+RPoewbPyD7Ss3aK61xI3dx8cJBpOXx+YT5774LKuUPGt9RVAMG+qQAcRRVEcUefRIQvWQKUwHDtCUfc6pzp67rU5mH7RupZdbEdcmsPoaKR0XWzrc01T2hItmvFC0vxjSARk7BuzRSEWRJVCFtJyyG+Pqyc7NOjbIFfArVq2ZTuqPK3ZC1woF6M7x01UFJYi86uvugNYF9EYqeAIh0I4K5QWqz30JyoQT9EVuynKAGslcDXQ7R+cHnJzOU/egVM+l4AtNFZkYuFscO7NO8hy7sK5i+xW+B6k8A8VYvBmqPNt/PXkA+tteH99vO0+F4nC5Ly+/+dqSvppuV3P8F);lineShape=1;strokeColor=default;" vertex="1" parent="1">
          <mxGeometry x="641.939098000363" y="816.819447561433" width="43.151591736413366" height="22.79411452867771" as="geometry" />
        </mxCell>
        <mxCell id="p943f_08dBattFa50fQa-22" value="" style="shape=stencil(lVfLbttADPwaXYnd5T7PafofAeLUQl07cJw+/r4U1FVMSpqggA+yzdklhxySGvjh7fj0ehiCe7tdL98Pv8bn23HgL0MI4/l4uI43eRr4ceCHl8v18O16eT8/z99fnybL6enH5ed0wu8ZV6i4CRTcn/kHzjR9lc/X2f40nu/sfaZaFCAHcmkfEDI5DSiNWtwHcCLfFKA6qnUfECOlqG9gim4fkJiSV4CU+xGbgOwoZs1SogxYypF8VQBfO9HbgEpJ35Co5H37EilrkhwVwFH1nZElAgp+374FiqwDoNCAfSSXjT//0r5tv4T3YR8AP60QZ+NPRudXyjoBkRhkuDVKms9CDfDjncSnCfWiA4Y3VBOBKA27ZGpIOPLohtodWACSZESSVH3SgIRZilb8om4PdNB4FUOihGKQtGYbQ0YuraQpLGVwQ21UvM1DxYCoS0My/ckNVd9QKQJtSggmZqEZacFTs9psSJvS7nSpOmKUg9SleKdl5I/wl4w/DqWsUtBFwdif1otyGTm4JNqKHwe79QQw0oxdrHsAU3TS3huiqK6qNOCYi52aUhQFJXkTAKqurNuL0ApiKI6a6RYVDvIsk18LJxbYj5L0XLMqePKgC8fcF4MOmPoHWEY4WqndNfLt9WXZbpYrZHSBqKXWqpkkiRraqOy6kzycC85uCrF1nnfsvQ5AWENqWA22yLC9yPnG3sMhst6lKuy/3iaAcZ36ftpij5UTqOii46VfbtdQb86LfYDtejUzxR4V0FItd/4w2jWtBiRe5P//bvyf28vDx+vFy3g6zW8n9//b1xH5aX6V4ce/);lineShape=1;strokeColor=default;" vertex="1" parent="1">
          <mxGeometry x="653.2409749040462" y="853.0307892086748" width="39.59950853949158" height="15.936664672564348" as="geometry" />
        </mxCell>
        <mxCell id="p943f_08dBattFa50fQa-23" value="" style="shape=stencil(lVfLctswDPwaXTEkwRfOafofmYlTe+raGcd9/X2hqlIF2Nq0N1nGisRiFyAHfnjbP73uhhTerpfz5933w/N1P/CHIaXDab+7HK76NPDjwA8v58vu0+X89fQ8/X59GiPHpy/nb+MXfky4SjWPoBR+Ti9YKLTfbz5O8cfDaRUfE1U2gBpo/LkJEOJkAUJRtgGpEQcLKJTjNoAL1WYAJVEv24DM1KJNOlPu24ASKBYDSIECAhQqdoWYZ97uApREsUkrbwkkrSTmanNIxIDWVjwgaWXqNqAzyW3SgFbJ1F3SlABJUkjsjvT7AcQ3itnFJ5CxdEo2PlEENRDxVS6zdLfim40XKsgJYclvpQpGGQt1y1Bc9rgFYFdkpgLsrBwVx5GyjIvwxyn/KCOpxM5s6iZEa/FlHldAW8oUxAIqCRIGz7pcsZTRlhI1u0LsJIjW5FuSVjoCOytAbFvVnFGhtaxeqxFtKN+4nwLyQplls/Ia2k/1XlCtI0bbTb/DKurU7X4yFpFa0Vas43zF96K4lHATYBOOjQrKQDyjYztC7VFTdj6ouP+2eeotgE4N5fC/gF5nEawmLTottOqdprMc9eCqJLrhr28ASzVSsCwVgR2vMLFTUoWjObfZuasV0PDnPtd10V6ADUxZjzZptVMAWlKpuaRXs+V+IW7sUObRcn8Fyq4M2kAASYGa3ZDWBZ2otJu4I1uDDXXpJkv80vS34u3+Cz6whfmwtRIF6qeBqjVCTlCm0fuA8VlhsdUS32Cz0PHhvq+HYqRRkuzj0XzKJNHHo/2ruuw44wr1Vj2f71xD3r+26MPfO8/L4Xicrkzr//0dSV9N9yt+/AU=);lineShape=1;strokeColor=default;" vertex="1" parent="1">
          <mxGeometry x="449.099745047502" y="860.0603319567219" width="47.21248762226014" height="11.47784617737625" as="geometry" />
        </mxCell>
        <mxCell id="p943f_08dBattFa50fQa-24" value="" style="shape=stencil(lVjbclMxDPyavGps2bKt5wL/0ZmmNENpOmm5/T0ywYdYJ2dL30Loxpa0u5K8SzcvD7fP+x2Hl9fT8cv+x+Hu9WGXPuyYD08P+9Ph1T7t0sddurk/nvafT8dvT3fnfz/f9r/sn74ev/df+HnGKVOpHcXh1/kbrhTzn28+nQGPh6cLQKtU2wwIJAwAifIMiEIFAKpdQGYAk9ZtQClU4gxIVNM2QJRqmAGZqgBApFJmQCEO24CcSd2VGmWQ1tSoBJ9WFENKlOYrcaICACzUeAKkQBkEbTf++3sDkANpAQChOJ+Q64jqOsDIN1daMgV0QqA0s7VkSI0YSecr1UQBZMnq6gpndFQFabXf0wlghGcQg2U9zGlt+S1qpNUJDZxg5PMAExCog9E75BkQh2ivAyrxDKg6zrwuUcuJ+LQKqEONlFwdEgkIuhaqc6VLoxaBL5ltzTEUhleyJDqJikkKCMjqKrPzmR4SAvCg2iLRJdFbAHGAPNKwBWhzWhMPt91yb+etrDit2SvOGoqiE8rK+Qo042ZOWjwApVXNNXh1AmCrRl8HbhRA0Gr0bj5LSHG6+NxFHRjFkL2ArNINVNqu1GabMS4lQG+bBJo7QYdCtrKU58LlCJtiUyqz4jK/OWsUD0De2oQ0+ysJlmhyEg3Dz7f04OvQYEPpruEqLSSgZbXVRJYYdqB+JWcC4a2g85wlo7egwpXB/gtNBxRD9eTrEkUxqHdvA6AYOvlWcysaQ3VpgRcSZazp5gpnZyIBvRsgnhrCY4LajGEGlGWC2kzrTO/eVxHArjRzqfdpIFHr+zxfydgVAZdqoOZmDYUmUMT3OKs9MgGb7nUmn1UmgkrLqu2qQG/N4odENcIDepuTukFXFcZg3HTTfQxmTCCvbElxUTfIPtuRXKNWPLgW30WNLALSuvIxm7gCKPQS30LuCjcg9qYky9J1vWqDZhfTGKry0i4v+iHq6bZruLG793QQcN+DnSUJnK0sRe5KUYeargOy74f9TLRVWhHcss5wI0vGCidnaqAzWAN3jlTghST4ySrDziPrPZoCMLwifuoJcDTs62N0f49kaW7omjMPh91ybI4uPxkNkmn10IBnKnOF6l5X2mjW1wHqaW2kQwO9qt8xujchHYSV9HuW8J0crzstUNTq3zJMajCv6td6Xl6ZtvLq32MqBtTVBNOGlq4DjAmrraQCbVoXy+IBaGG1JSMnDxC0KKUrV4KL0nufG/8DYB/+vW7eHx4fz4+jl//vX0Ptq/NLavr4Gw==);lineShape=1;strokeColor=default;" vertex="1" parent="1">
          <mxGeometry x="420.76979144106417" y="917.0555686757968" width="47.25681174523447" height="34.56257900137621" as="geometry" />
        </mxCell>
      </root>
    </mxGraphModel>
  </diagram>
</mxfile>
